<svg xmlns="http://www.w3.org/2000/svg" width="23.187" height="25.137" viewBox="0 0 23.187 25.137">
  <g id="Group_67085" data-name="Group 67085" transform="translate(606.333 -3996)">
    <path id="Path_238392" data-name="Path 238392" d="M246.852,115.988a2.018,2.018,0,0,0-1.74-2,2.018,2.018,0,0,0-4,0,2.018,2.018,0,0,0,0,4,2.018,2.018,0,0,0,4,0A2.018,2.018,0,0,0,246.852,115.988Z" transform="translate(-836.124 3887.309)" fill="#fec928"/>
    <path id="Path_238393" data-name="Path 238393" d="M295.705,113.99a2.018,2.018,0,0,0-2-1.74h-.04v7.475h.04a2.018,2.018,0,0,0,2-1.74,2.018,2.018,0,0,0,0-4Z" transform="translate(-886.716 3887.309)" fill="#feb200"/>
    <path id="Path_238394" data-name="Path 238394" d="M194.393,140.536a2.018,2.018,0,0,0-1.74-2,2.018,2.018,0,0,0-4,0,2.018,2.018,0,0,0,0,4,2.018,2.018,0,0,0,4,0A2.018,2.018,0,0,0,194.393,140.536Z" transform="translate(-787.238 3864.434)" fill="#fec928"/>
    <circle id="Ellipse_3334" data-name="Ellipse 3334" cx="1.269" cy="1.269" r="1.269" transform="translate(-594.278 4002.028)" fill="#fe9f00"/>
    <path id="Path_238395" data-name="Path 238395" d="M293.707,148.5l-.04,0v2.534l.04,0a1.269,1.269,0,1,0,0-2.537Z" transform="translate(-886.716 3853.529)" fill="#fe8e00"/>
    <path id="Path_238396" data-name="Path 238396" d="M106.143,180.238a2.018,2.018,0,0,0-1.74-2,2.018,2.018,0,0,0-4,0,2.018,2.018,0,0,0,0,4,2.018,2.018,0,0,0,4,0A2.018,2.018,0,0,0,106.143,180.238Z" transform="translate(-705 3827.436)" fill="#fec300"/>
    <path id="Path_238397" data-name="Path 238397" d="M116.7,253.185H102.073l-3.406-12.852H120.1Z" transform="translate(-705 3767.952)" fill="#e33e71"/>
    <path id="Path_238398" data-name="Path 238398" d="M266.318,240.333H255.571v12.852h7.341Z" transform="translate(-851.215 3767.952)" fill="#e33e71"/>
    <rect id="Rectangle_8923" data-name="Rectangle 8923" width="3.315" height="15.873" transform="translate(-597.273 3996)" fill="#e33e71"/>
    <rect id="Rectangle_8924" data-name="Rectangle 8924" width="1.687" height="15.873" transform="translate(-595.644 3996)" fill="#e33e71"/>
    <path id="Path_238399" data-name="Path 238399" d="M112.81,125.363a2.018,2.018,0,0,0-1.74-2,2.018,2.018,0,0,0-4,0,2.018,2.018,0,0,0,0,4,2.018,2.018,0,0,0,4,0A2.018,2.018,0,0,0,112.81,125.363Z" transform="translate(-711.213 3878.573)" fill="#dc2c00"/>
    <path id="Path_238400" data-name="Path 238400" d="M162.324,123.367a2.018,2.018,0,0,0-1.99-1.74V129.1a2.018,2.018,0,0,0,1.99-1.739,2.018,2.018,0,0,0,0-4Z" transform="translate(-762.466 3878.571)" fill="#be360c"/>
    <circle id="Ellipse_3335" data-name="Ellipse 3335" cx="1.269" cy="1.269" r="1.269" transform="translate(-603.409 4002.667)" fill="#fe8965"/>
    <path id="Path_238401" data-name="Path 238401" d="M161.593,159.149a1.269,1.269,0,0,0-1.26-1.268v2.537A1.268,1.268,0,0,0,161.593,159.149Z" transform="translate(-762.465 3844.787)" fill="#fe7043"/>
    <path id="Path_238402" data-name="Path 238402" d="M275.976,174.863a3.045,3.045,0,0,0-5.737-2,3.045,3.045,0,1,0,4,4A2.018,2.018,0,0,0,275.976,174.863Z" transform="translate(-863.264 3832.445)" fill="#dc2c00"/>
    <path id="Path_238403" data-name="Path 238403" d="M324.869,172.865a2.018,2.018,0,0,0-2-1.74h-.037V178.6h.037a3.045,3.045,0,0,0,2-5.737Z" transform="translate(-913.896 3832.445)" fill="#be360c"/>
    <circle id="Ellipse_3336" data-name="Ellipse 3336" cx="1.269" cy="1.269" r="1.269" transform="translate(-592.294 4006.04)" fill="#fe8965"/>
    <path id="Path_238404" data-name="Path 238404" d="M322.87,207.375l-.037,0v2.534l.037,0a1.269,1.269,0,1,0,0-2.537Z" transform="translate(-913.895 3798.665)" fill="#fe7043"/>
    <path id="Path_238405" data-name="Path 238405" d="M162.476,180.238a2.018,2.018,0,0,0-1.74-2,2.018,2.018,0,0,0-4,0,2.018,2.018,0,0,0,0,4,2.018,2.018,0,0,0,4,0A2.018,2.018,0,0,0,162.476,180.238Z" transform="translate(-757.495 3827.436)" fill="#fe9f00"/>
    <path id="Path_238406" data-name="Path 238406" d="M211.746,178.24a2.018,2.018,0,0,0-2-1.74h-.009v7.476h.009a3.045,3.045,0,0,0,2-5.737Z" transform="translate(-808.505 3827.436)" fill="#fe8e00"/>
    <circle id="Ellipse_3337" data-name="Ellipse 3337" cx="1.269" cy="1.269" r="1.269" transform="translate(-600.026 4006.405)" fill="#fe6f00"/>
    <path id="Path_238407" data-name="Path 238407" d="M209.747,212.75h-.009v2.537h.009a1.269,1.269,0,1,0,0-2.538Z" transform="translate(-808.505 3793.656)" fill="#e55100"/>
    <path id="Path_238408" data-name="Path 238408" d="M345.777,151.909a1.84,1.84,0,0,0-1.586-1.823,1.84,1.84,0,0,0-3.645,0,1.84,1.84,0,0,0,0,3.645,1.84,1.84,0,0,0,3.645,0A1.84,1.84,0,0,0,345.777,151.909Z" transform="translate(-928.923 3853.529)" fill="#fe9f00"/>
    <path id="Path_238409" data-name="Path 238409" d="M390.734,150.086a1.84,1.84,0,0,0-1.822-1.586H388.9v6.818h.006a1.84,1.84,0,0,0,1.822-1.586,1.84,1.84,0,0,0,0-3.645Z" transform="translate(-975.466 3853.529)" fill="#fe8e00"/>
    <circle id="Ellipse_3338" data-name="Ellipse 3338" cx="1.157" cy="1.157" r="1.157" transform="translate(-587.712 4004.281)" fill="#fe6f00"/>
    <path id="Path_238410" data-name="Path 238410" d="M388.911,181.557H388.9v2.313h.006a1.157,1.157,0,1,0,0-2.314Z" transform="translate(-975.466 3822.724)" fill="#e55100"/>
  </g>
</svg>
