<svg xmlns="http://www.w3.org/2000/svg" width="21.196" height="21.187" viewBox="0 0 21.196 21.187">
  <g id="flower" transform="translate(-0.001 -0.1)">
    <path id="Path_237565" data-name="Path 237565" d="M21.066,13.476v.066a3.636,3.636,0,0,1-4.5,2.584l-.729-.2.2.729a3.687,3.687,0,0,1-2.584,4.5h-.066a3.687,3.687,0,0,1-4.5-2.584l-.2-.729-.53.53a3.6,3.6,0,0,1-5.167,0l-.066-.066a3.679,3.679,0,0,1,0-5.234l.53-.53-.729-.2a3.636,3.636,0,0,1-2.584-4.5V7.778a3.648,3.648,0,0,1,4.5-2.517l.662.2-.132-.729A3.687,3.687,0,0,1,7.751.226h.066a3.687,3.687,0,0,1,4.5,2.584l.2.729.53-.53a3.679,3.679,0,0,1,5.234,0l.066.066a3.6,3.6,0,0,1,0,5.167l-.53.53.729.2A3.648,3.648,0,0,1,21.066,13.476Z" transform="translate(0 0)" fill="#e33e71"/>
    <circle id="Ellipse_3317" data-name="Ellipse 3317" cx="3.975" cy="3.975" r="3.975" transform="translate(6.624 6.718)" fill="#f4c533"/>
    <circle id="Ellipse_3318" data-name="Ellipse 3318" cx="2.716" cy="2.716" r="2.716" transform="translate(7.883 7.977)" fill="#fed93d"/>
  </g>
</svg>
