<svg xmlns="http://www.w3.org/2000/svg" width="10.366" height="10.361" viewBox="0 0 10.366 10.361">
  <g id="flower" transform="translate(-0.001 -0.1)">
    <path id="Path_237565" data-name="Path 237565" d="M10.3,6.641v.032A1.778,1.778,0,0,1,8.1,7.937l-.356-.1.1.356a1.8,1.8,0,0,1-1.264,2.2H6.545a1.8,1.8,0,0,1-2.2-1.264l-.1-.356-.259.259a1.76,1.76,0,0,1-2.527,0l-.032-.032a1.8,1.8,0,0,1,0-2.559l.259-.259-.356-.1a1.778,1.778,0,0,1-1.264-2.2V3.855a1.784,1.784,0,0,1,2.2-1.231l.324.1-.065-.356A1.8,1.8,0,0,1,3.791.162h.032a1.8,1.8,0,0,1,2.2,1.264l.1.356.259-.259a1.8,1.8,0,0,1,2.559,0l.032.032a1.76,1.76,0,0,1,0,2.527l-.259.259.356.1A1.784,1.784,0,0,1,10.3,6.641Z" transform="translate(0 0)" fill="#e33e71"/>
    <circle id="Ellipse_3317" data-name="Ellipse 3317" cx="1.944" cy="1.944" r="1.944" transform="translate(3.24 3.337)" fill="#f4c533"/>
    <circle id="Ellipse_3318" data-name="Ellipse 3318" cx="1.328" cy="1.328" r="1.328" transform="translate(3.856 3.952)" fill="#fed93d"/>
  </g>
</svg>
