<svg xmlns="http://www.w3.org/2000/svg" width="35.083" height="26.726" viewBox="0 0 35.083 26.726">
  <g id="gmail" transform="translate(0 -60.983)">
    <g id="Group_71522" data-name="Group 71522" transform="translate(2.287 60.983)">
      <path id="Path_243039" data-name="Path 243039" d="M64.323,122.808,62.083,145.3h-26.9l-1.8-22.054,15.254,8.541Z" transform="translate(-33.379 -118.572)" fill="#f2f2f2"/>
      <path id="Path_243040" data-name="Path 243040" d="M67.974,60.983,53.044,75.008,38.114,60.983h29.86Z" transform="translate(-37.79 -60.983)" fill="#f2f2f2"/>
    </g>
    <path id="Path_243041" data-name="Path 243041" d="M4.092,114.949V135.2H1.654A1.654,1.654,0,0,1,0,133.545V111.967l2.672.073Z" transform="translate(0 -47.491)" fill="#f14336"/>
    <path id="Path_243042" data-name="Path 243042" d="M456.38,109.173v21.578a1.655,1.655,0,0,1-1.655,1.654h-2.437v-20.25l1.349-3.188Z" transform="translate(-421.297 -44.697)" fill="#d32e2a"/>
    <path id="Path_243043" data-name="Path 243043" d="M35.083,62.637v1.839l-4.092,2.982-13.45,9.8-13.45-9.8L0,64.476V62.637a1.654,1.654,0,0,1,1.654-1.654h.958l14.93,10.882,14.93-10.882h.957A1.655,1.655,0,0,1,35.083,62.637Z" transform="translate(0 0)" fill="#f14336"/>
    <path id="Path_243044" data-name="Path 243044" d="M4.092,114.949,0,114.315v-2.348Z" transform="translate(0 -47.491)" fill="#d32e2a"/>
  </g>
</svg>
