<svg xmlns="http://www.w3.org/2000/svg" width="23.558" height="25.539" viewBox="0 0 23.558 25.539">
  <g id="Group_66857" data-name="Group 66857" transform="translate(1135.333 -1753)">
    <path id="Path_237584" data-name="Path 237584" d="M390.763,150.112a1.87,1.87,0,0,0-1.852-1.612H388.9v6.927h.007a1.87,1.87,0,0,0,1.852-1.612,1.869,1.869,0,0,0,0-3.7Z" transform="translate(-1504.15 1610.625)" fill="#fe8e00"/>
    <g id="Group_66856" data-name="Group 66856" transform="translate(-1135.333 1753)">
      <path id="Path_237567" data-name="Path 237567" d="M246.972,116.048a2.051,2.051,0,0,0-1.768-2.031,2.05,2.05,0,0,0-4.061,0,2.05,2.05,0,0,0,0,4.061,2.05,2.05,0,0,0,4.061,0A2.05,2.05,0,0,0,246.972,116.048Z" transform="translate(-229.637 -108.634)" fill="#b1bacc"/>
      <path id="Path_237568" data-name="Path 237568" d="M295.738,114.017a2.05,2.05,0,0,0-2.03-1.767h-.04v7.594h.04a2.05,2.05,0,0,0,2.03-1.767,2.05,2.05,0,0,0,0-4.061Z" transform="translate(-280.171 -108.634)" fill="#b1bacc"/>
      <path id="Path_237569" data-name="Path 237569" d="M194.513,140.6a2.051,2.051,0,0,0-1.768-2.031,2.05,2.05,0,0,0-4.061,0,2.05,2.05,0,0,0,0,4.061,2.05,2.05,0,0,0,4.061,0A2.05,2.05,0,0,0,194.513,140.6Z" transform="translate(-180.809 -131.483)" fill="#b1bacc"/>
      <circle id="Ellipse_3320" data-name="Ellipse 3320" cx="1.289" cy="1.289" r="1.289" transform="translate(12.247 6.125)" fill="#8c9dbe"/>
      <path id="Path_237570" data-name="Path 237570" d="M293.707,148.5l-.04,0v2.574l.04,0a1.289,1.289,0,1,0,0-2.578Z" transform="translate(-280.171 -142.375)" fill="#8c9dbe"/>
      <path id="Path_237571" data-name="Path 237571" d="M106.263,180.3a2.051,2.051,0,0,0-1.768-2.031,2.05,2.05,0,0,0-4.061,0,2.05,2.05,0,0,0,0,4.061,2.05,2.05,0,0,0,4.061,0A2.05,2.05,0,0,0,106.263,180.3Z" transform="translate(-98.667 -168.437)" fill="#b1bacc"/>
      <path id="Path_237572" data-name="Path 237572" d="M116.985,253.391H102.128l-3.461-13.058h21.778Z" transform="translate(-98.667 -227.852)" fill="#b1bacc"/>
      <path id="Path_237573" data-name="Path 237573" d="M266.49,240.333H255.571v13.058h7.458Z" transform="translate(-244.712 -227.852)" fill="#b1bacc"/>
      <rect id="Rectangle_8898" data-name="Rectangle 8898" width="3.368" height="16.126" transform="translate(9.205)" fill="#8c9dbe"/>
      <rect id="Rectangle_8899" data-name="Rectangle 8899" width="1.714" height="16.126" transform="translate(10.859)" fill="#8c9dbe"/>
      <path id="Path_237574" data-name="Path 237574" d="M112.93,125.423a2.051,2.051,0,0,0-1.768-2.031,2.05,2.05,0,0,0-4.061,0,2.05,2.05,0,0,0,0,4.061,2.05,2.05,0,0,0,4.061,0A2.05,2.05,0,0,0,112.93,125.423Z" transform="translate(-104.873 -117.36)" fill="#b1bacc"/>
      <path id="Path_237575" data-name="Path 237575" d="M162.356,123.394a2.05,2.05,0,0,0-2.022-1.767v7.6a2.05,2.05,0,0,0,2.022-1.767,2.05,2.05,0,0,0,0-4.061Z" transform="translate(-156.066 -117.362)" fill="#b1bacc"/>
      <circle id="Ellipse_3321" data-name="Ellipse 3321" cx="1.289" cy="1.289" r="1.289" transform="translate(2.97 6.774)" fill="#8c9dbe"/>
      <path id="Path_237576" data-name="Path 237576" d="M161.613,159.17a1.289,1.289,0,0,0-1.28-1.289v2.577A1.289,1.289,0,0,0,161.613,159.17Z" transform="translate(-156.065 -151.107)" fill="#8c9dbe"/>
      <path id="Path_237577" data-name="Path 237577" d="M276.1,174.923a2.051,2.051,0,0,0-1.768-2.031,2.05,2.05,0,0,0-4.061,0,3.093,3.093,0,1,0,4.061,4.061A2.05,2.05,0,0,0,276.1,174.923Z" transform="translate(-256.746 -163.434)" fill="#b1bacc"/>
      <path id="Path_237578" data-name="Path 237578" d="M324.9,172.892a2.05,2.05,0,0,0-2.03-1.767h-.037v7.594h.037a3.093,3.093,0,0,0,2.03-5.828Z" transform="translate(-307.319 -163.434)" fill="#b1bacc"/>
      <circle id="Ellipse_3322" data-name="Ellipse 3322" cx="1.289" cy="1.289" r="1.289" transform="translate(14.263 10.2)" fill="#8c9dbe"/>
      <path id="Path_237579" data-name="Path 237579" d="M322.871,207.375l-.038,0v2.574l.038,0a1.289,1.289,0,1,0,0-2.578Z" transform="translate(-307.318 -197.175)" fill="#8c9dbe"/>
      <path id="Path_237580" data-name="Path 237580" d="M162.6,180.3a2.051,2.051,0,0,0-1.767-2.031,2.05,2.05,0,0,0-4.061,0,2.05,2.05,0,0,0,0,4.061,2.05,2.05,0,0,0,4.061,0A2.05,2.05,0,0,0,162.6,180.3Z" transform="translate(-151.101 -168.437)" fill="#b1bacc"/>
      <path id="Path_237581" data-name="Path 237581" d="M211.778,178.267a2.05,2.05,0,0,0-2.03-1.767h-.009v7.6h.009a3.093,3.093,0,0,0,2.03-5.828Z" transform="translate(-202.051 -168.437)" fill="#b1bacc"/>
      <circle id="Ellipse_3323" data-name="Ellipse 3323" cx="1.289" cy="1.289" r="1.289" transform="translate(6.407 10.572)" fill="#8c9dbe"/>
      <path id="Path_237582" data-name="Path 237582" d="M209.747,212.75h-.009v2.577h.009a1.289,1.289,0,1,0,0-2.578Z" transform="translate(-202.051 -202.178)" fill="#8c9dbe"/>
      <path id="Path_237583" data-name="Path 237583" d="M345.886,151.963a1.87,1.87,0,0,0-1.612-1.852,1.869,1.869,0,0,0-3.7,0,1.869,1.869,0,0,0,0,3.7,1.869,1.869,0,0,0,3.7,0A1.87,1.87,0,0,0,345.886,151.963Z" transform="translate(-322.328 -142.375)" fill="#b1bacc"/>
      <path id="Path_237586" data-name="Path 237586" d="M1.176,0A1.176,1.176,0,1,1,0,1.176,1.176,1.176,0,0,1,1.176,0Z" transform="translate(18.919 8.413)" fill="#8c9dbe"/>
    </g>
    <path id="Path_237585" data-name="Path 237585" d="M388.912,181.557H388.9v2.35h.007a1.176,1.176,0,1,0,0-2.351Z" transform="translate(-1504.15 1579.856)" fill="#8c9dbe"/>
  </g>
</svg>
