<svg xmlns="http://www.w3.org/2000/svg" width="23.933" height="23.922" viewBox="0 0 23.933 23.922">
  <g id="flower" transform="translate(-0.001 -0.1)">
    <path id="Path_237565" data-name="Path 237565" d="M23.786,15.2v.075A4.105,4.105,0,0,1,18.7,18.195l-.823-.224.224.823a4.163,4.163,0,0,1-2.917,5.087h-.075a4.163,4.163,0,0,1-5.087-2.917L9.8,20.14l-.6.6a4.065,4.065,0,0,1-5.835,0l-.075-.075a4.154,4.154,0,0,1,0-5.909l.6-.6-.823-.224A4.105,4.105,0,0,1,.149,8.845V8.77A4.119,4.119,0,0,1,5.235,5.927l.748.224-.15-.823A4.163,4.163,0,0,1,8.751.242h.075A4.163,4.163,0,0,1,13.912,3.16l.224.823.6-.6a4.154,4.154,0,0,1,5.909,0l.075.075a4.065,4.065,0,0,1,0,5.835l-.6.6.823.224A4.119,4.119,0,0,1,23.786,15.2Z" transform="translate(0 0)" fill="#b1bacc"/>
    <circle id="Ellipse_3317" data-name="Ellipse 3317" cx="4.488" cy="4.488" r="4.488" transform="translate(7.479 7.573)" fill="#8c9dbe"/>
    <path id="Path_238442" data-name="Path 238442" d="M3.067,0A3.067,3.067,0,1,1,0,3.067,3.067,3.067,0,0,1,3.067,0Z" transform="translate(8.901 8.994)" fill="#8c9dbe"/>
  </g>
</svg>
