<svg xmlns="http://www.w3.org/2000/svg" width="29.606" height="19.397" viewBox="0 0 29.606 19.397">
  <g id="saudi-arabia" transform="translate(0 -88.276)">
    <path id="Path_199807" data-name="Path 199807" d="M27.389,107.673H2.217A2.217,2.217,0,0,1,0,105.456V90.493a2.217,2.217,0,0,1,2.217-2.217H27.389a2.217,2.217,0,0,1,2.217,2.217v14.963A2.217,2.217,0,0,1,27.389,107.673Z" fill="#73af00"/>
    <g id="Group_54019" data-name="Group 54019" transform="translate(5.853 92.36)">
      <path id="Path_199808" data-name="Path 199808" d="M102.415,168.163c.05.322.245.424.415.41a.417.417,0,0,0,.375-.391v-1.107a.1.1,0,0,1,.2,0v1.111a.4.4,0,0,0,.552.373l.1-.04c.009.929-.047,1.745-.048,1.76a.2.2,0,0,0,.186.215h.015a.2.2,0,0,0,.2-.187c0-.065.067-.96.048-1.95l.061-.024a.2.2,0,0,1,.165.007.575.575,0,0,0,.663-.108l.036-.036a.6.6,0,0,0,.146-.618l-.171-.514a.2.2,0,0,0,.149-.372l-.4-.2a.2.2,0,0,0-.281.244l.324.971a.2.2,0,0,1-.049.206l-.036.036a.173.173,0,0,1-.2.032.6.6,0,0,0-.418-.042,6.94,6.94,0,0,0-.246-1.734.2.2,0,0,0-.382.127,6.918,6.918,0,0,1,.231,1.756l-.241.1v-1.111a.5.5,0,1,0-1.006,0v.974l-.205-1.014a.2.2,0,1,0-.394.08Z" transform="translate(-102.142 -165.654)" fill="#f5f5f5"/>
      <path id="Path_199809" data-name="Path 199809" d="M109.361,163.2a.2.2,0,0,0,.2-.2v-.2a.2.2,0,1,0-.4,0v.2A.2.2,0,0,0,109.361,163.2Z" transform="translate(-108.701 -162.38)" fill="#f5f5f5"/>
      <path id="Path_199810" data-name="Path 199810" d="M144.158,163h.2a.2.2,0,1,0,0-.4h-.2a.2.2,0,1,0,0,.4Z" transform="translate(-141.486 -162.38)" fill="#f5f5f5"/>
      <path id="Path_199811" data-name="Path 199811" d="M106.783,214.818l-1.006.6a.2.2,0,1,0,.207.345l1.006-.6a.2.2,0,1,0-.207-.345Z" transform="translate(-105.422 -211.557)" fill="#f5f5f5"/>
      <path id="Path_199812" data-name="Path 199812" d="M119.258,169.274l0,0a.459.459,0,0,0,.093.189.4.4,0,0,0,.343.133.555.555,0,0,0,.419-.22.367.367,0,0,0,.042.025.381.381,0,0,0,.354-.011.764.764,0,0,0,.36-.708.206.206,0,0,0-.21-.191.2.2,0,0,0-.193.209s0,.241-.141.33a.49.49,0,0,1-.063-.17.2.2,0,0,0-.4.033c0,.029-.007.288-.206.309a.491.491,0,0,1,0-.263.2.2,0,0,0-.309-.213l-.112.076c-.053-1.167-.176-2.527-.178-2.544a.2.2,0,1,0-.4.037c0,.019.144,1.592.188,2.793l-.031.03a.519.519,0,0,0-.44-.346.734.734,0,0,0-.709.448.476.476,0,0,0,.154.6.671.671,0,0,0,.6.028,1.683,1.683,0,0,1-.327.62.844.844,0,0,1-.643.328.529.529,0,0,1-.391-.167,1.149,1.149,0,0,1-.213-.72.2.2,0,0,0-.19-.211.2.2,0,0,0-.212.19,1.543,1.543,0,0,0,.316,1.011.923.923,0,0,0,.674.3h.04a1.226,1.226,0,0,0,.923-.468,2.081,2.081,0,0,0,.461-1.031,2.28,2.28,0,0,1-.965,1.807,1,1,0,0,1-1.008.074.863.863,0,0,1-.443-.851.2.2,0,0,0-.4-.05,1.264,1.264,0,0,0,.664,1.262,1.368,1.368,0,0,0,.609.145,1.489,1.489,0,0,0,.789-.238,2.675,2.675,0,0,0,1.156-2.15C119.265,169.564,119.262,169.423,119.258,169.274Zm-1.213.207c-.036-.024-.008-.1,0-.115a.342.342,0,0,1,.281-.2h.016c.026,0,.094.009.123.161,0,.016.006.033.008.049C118.247,169.511,118.1,169.515,118.045,169.481Z" transform="translate(-115.184 -165.657)" fill="#f5f5f5"/>
      <path id="Path_199813" data-name="Path 199813" d="M101.986,243.466a.2.2,0,0,0-.275.071.413.413,0,0,1-.034.048l-.007-.017a1.353,1.353,0,0,1,.006-.683.2.2,0,0,0-.389-.1,1.733,1.733,0,0,0,.006.928c.092.246.234.308.337.317h.027a.529.529,0,0,0,.4-.288A.2.2,0,0,0,101.986,243.466Z" transform="translate(-101.225 -237.791)" fill="#f5f5f5"/>
      <path id="Path_199814" data-name="Path 199814" d="M175.33,164.4a.2.2,0,0,0,.124-.043l1.014-.8a.2.2,0,0,0,.033-.039.5.5,0,1,0-.578-.045l-.718.564a.2.2,0,0,0,.124.359Zm.914-1.409a.1.1,0,1,1-.1.1A.1.1,0,0,1,176.244,163Z" transform="translate(-170.855 -162.38)" fill="#f5f5f5"/>
      <path id="Path_199815" data-name="Path 199815" d="M185.446,190.442a.2.2,0,0,0-.255.127.615.615,0,0,0,.078.593.406.406,0,0,0,.3.115.884.884,0,0,0,.278-.051.2.2,0,1,0-.127-.382.7.7,0,0,1-.164.035.385.385,0,0,1,.017-.184A.2.2,0,0,0,185.446,190.442Z" transform="translate(-180.296 -188.608)" fill="#f5f5f5"/>
      <path id="Path_199816" data-name="Path 199816" d="M227.76,163.244a.2.2,0,0,0,.25-.137l.117-.4a.2.2,0,1,0-.386-.113l-.117.4A.2.2,0,0,0,227.76,163.244Z" transform="translate(-220.307 -162.242)" fill="#f5f5f5"/>
      <path id="Path_199817" data-name="Path 199817" d="M206.024,159.876a.2.2,0,1,0,.2-.347c-.04-.024-.035-.09-.033-.1a.158.158,0,0,1,.092-.134.2.2,0,0,0-.12-.384.552.552,0,0,0-.373.473A.5.5,0,0,0,206.024,159.876Z" transform="translate(-199.743 -158.897)" fill="#f5f5f5"/>
      <path id="Path_199818" data-name="Path 199818" d="M178.955,232.189a.2.2,0,0,0-.038.4.378.378,0,0,1,.038.2.2.2,0,1,0,.4,0C179.358,232.2,178.972,232.189,178.955,232.189Z" transform="translate(-174.271 -227.951)" fill="#f5f5f5"/>
      <path id="Path_199819" data-name="Path 199819" d="M234.827,208.4a.464.464,0,0,0,.076.006.688.688,0,0,0,.476-.238.2.2,0,0,0-.285-.285c-.12.12-.185.123-.2.119-.038-.005-.073-.056-.081-.069a.2.2,0,0,0-.359.182A.544.544,0,0,0,234.827,208.4Z" transform="translate(-226.728 -205)" fill="#f5f5f5"/>
      <path id="Path_199820" data-name="Path 199820" d="M293.981,190.96l0-.009a.2.2,0,0,0-.381.129.451.451,0,0,0,.327.314l.044,0a.493.493,0,0,0,.389-.269.2.2,0,0,0-.335-.223A.609.609,0,0,1,293.981,190.96Z" transform="translate(-282.462 -188.969)" fill="#f5f5f5"/>
      <path id="Path_199821" data-name="Path 199821" d="M205.063,171.3c0-.858-.038-1.663-.09-2.368a10.189,10.189,0,0,1,.707,1.433.2.2,0,0,0,.188.131.2.2,0,0,0,.071-.013.2.2,0,0,0,.118-.259,13.327,13.327,0,0,0-1.164-2.205c-.11-1.084-.233-1.772-.235-1.784a.2.2,0,0,0-.4.072c0,.009.065.363.141.96-.155-.229-.3-.436-.419-.607l.01,0a.2.2,0,1,0,.127-.382l-.6-.2a.2.2,0,0,0-.227.073.2.2,0,0,0-.029.062.439.439,0,0,0-.42-.1.342.342,0,0,0-.192.358,1.818,1.818,0,0,0,.139.57c.118.336.193.582.067.7a.22.22,0,0,1-.206.073c-.124-.031-.247-.2-.329-.442a.187.187,0,0,0-.016-.028,3.422,3.422,0,0,0-.061-1.113.2.2,0,0,0-.395.079,1.915,1.915,0,0,1-.105,1.434.361.361,0,0,1-.3.136.116.116,0,0,1-.1-.045,1.939,1.939,0,0,1-.107-1.134.2.2,0,0,0-.2-.23c-.346,0-.478.394-.593.741-.051.153-.145.437-.212.466-.122,0-.2-.358-.2-.6a.2.2,0,0,0-.2-.2h0a.2.2,0,0,0-.2.2c0,.464.158,1.006.6,1.006.332,0,.466-.362.579-.7a1.261,1.261,0,0,0,.228.715.516.516,0,0,0,.4.184.766.766,0,0,0,.612-.284.925.925,0,0,0,.075-.111.75.75,0,0,0,.422.316.579.579,0,0,0,.142.018.638.638,0,0,0,.438-.187.59.59,0,0,0,.067-.081.543.543,0,0,0,.149.022.814.814,0,0,0,.417-.128.2.2,0,0,0-.216-.339.427.427,0,0,1-.228.06,2.076,2.076,0,0,0-.152-.661,2.8,2.8,0,0,1-.1-.336c.017.014.033.029.047.043a.2.2,0,0,0,.284,0,.193.193,0,0,0,.029-.044c.209.287.638.891,1.079,1.587.084.856.158,1.947.158,3.144a.2.2,0,0,0,.4,0Z" transform="translate(-193.94 -165.651)" fill="#f5f5f5"/>
      <path id="Path_199822" data-name="Path 199822" d="M293.787,166.88a.2.2,0,0,0,.4,0,2.052,2.052,0,0,0-.222-.694.2.2,0,1,0-.36.18A1.787,1.787,0,0,1,293.787,166.88Z" transform="translate(-282.463 -165.66)" fill="#f5f5f5"/>
      <path id="Path_199823" data-name="Path 199823" d="M263.366,250.013a.2.2,0,0,0-.27.089.578.578,0,0,1-.083.119,1.124,1.124,0,0,1,.053-.372.2.2,0,0,0-.335-.2l-.4.4a.2.2,0,1,0,.285.285l.01-.01a.416.416,0,0,0,.108.211.368.368,0,0,0,.261.115.359.359,0,0,0,.055,0,.655.655,0,0,0,.408-.364A.2.2,0,0,0,263.366,250.013Z" transform="translate(-252.957 -244.345)" fill="#f5f5f5"/>
      <path id="Path_199824" data-name="Path 199824" d="M171.484,205.771h-1.418q.019-.075.039-.143c.566-.118.9-.3,1-.544a.45.45,0,0,0-.076-.452.5.5,0,0,0-.509-.217c-.286.058-.541.366-.724.859a2.312,2.312,0,0,0-1.162.5,3.118,3.118,0,0,0-.417-1.338.2.2,0,1,0-.335.223,2.906,2.906,0,0,1,.369,1.5,1.592,1.592,0,0,1-1.207,1.61c-.226,0-.325-.269-.368-.5a2.311,2.311,0,0,0,.966-1.065,1.6,1.6,0,0,0-.134-1.091l-.015-.035.013.012a.2.2,0,0,0,.284-.285c-.118-.118-.346-.3-.554-.216a.342.342,0,0,0-.192.358.856.856,0,0,0,.094.323,1.217,1.217,0,0,1,.114.835,1.7,1.7,0,0,1-.659.726.2.2,0,0,0-.152-.074h0a.2.2,0,0,0-.2.2c0,.036,0,.075,0,.115a10.578,10.578,0,0,1-1.295.708.2.2,0,0,0,.083.384.2.2,0,0,0,.083-.018,11.594,11.594,0,0,0,1.2-.643.783.783,0,0,0,.727.662,1.709,1.709,0,0,0,1.346-.984,1.171,1.171,0,0,0,.134.192,2.268,2.268,0,0,0,1.538.591.2.2,0,0,0,.014-.4.431.431,0,0,1-.251-.122.345.345,0,0,1-.066-.264c.021-.248.82-.433,1.525-.444a.2.2,0,0,0,.187-.134l.2-.566a.2.2,0,0,0-.189-.269Zm-.883-.961.015,0c.019,0,.05.009.09.064.008.01.032.045.026.061-.023.057-.162.151-.452.236C170.408,204.92,170.533,204.824,170.6,204.81Zm-1.215,2.645a1.232,1.232,0,0,1-.557-.339.855.855,0,0,1-.179-.709.591.591,0,0,1,.042-.085c.283-.026,1.04.086,1.093.3a.676.676,0,0,0-.425.525A.848.848,0,0,0,169.386,207.455Z" transform="translate(-161.153 -201.721)" fill="#f5f5f5"/>
      <path id="Path_199825" data-name="Path 199825" d="M291.707,166.811l-.2-.6a.2.2,0,0,0-.391.084c.139,1.388.4,4.1.4,4.407,0,.279-.5.828-1.3,1.229a.2.2,0,0,0,.18.36c.732-.366,1.52-1.019,1.52-1.589,0-.3-.206-2.436-.323-3.638A.2.2,0,0,0,291.707,166.811Z" transform="translate(-279.185 -165.655)" fill="#f5f5f5"/>
      <path id="Path_199826" data-name="Path 199826" d="M336.008,194.207a.2.2,0,0,0,.337-.192,1.016,1.016,0,0,1-.029-.391.2.2,0,0,0,.209-.173.2.2,0,0,0-.171-.228.363.363,0,0,0-.331.112.46.46,0,0,0-.1.216l-.233-.233a.2.2,0,1,0-.284.285Z" transform="translate(-321.808 -191.235)" fill="#f5f5f5"/>
      <path id="Path_199827" data-name="Path 199827" d="M340.967,213.3l-.755.541a.2.2,0,1,0,.234.327l.755-.541a.2.2,0,1,0-.234-.327Z" transform="translate(-326.314 -210.119)" fill="#f5f5f5"/>
      <path id="Path_199828" data-name="Path 199828" d="M352.785,225.739a.2.2,0,0,0,.018.267.558.558,0,0,1,.041.29.2.2,0,0,0,.194.208h.007a.2.2,0,0,0,.2-.194c.015-.411-.12-.561-.178-.606A.2.2,0,0,0,352.785,225.739Z" transform="translate(-338.198 -221.801)" fill="#f5f5f5"/>
      <path id="Path_199829" data-name="Path 199829" d="M325.032,171.082a.2.2,0,0,0,.2-.2c0-.3-.015-.628-.04-.973a7.349,7.349,0,0,1,.472.876.2.2,0,0,0,.185.122.2.2,0,0,0,.079-.016.2.2,0,0,0,.106-.264,11.075,11.075,0,0,0-.921-1.587c-.079-.739-.182-1.462-.262-1.981a.194.194,0,0,0,.126-.031.114.114,0,1,1,.111-.124.732.732,0,0,1,.073.493.2.2,0,0,0,.156.238.212.212,0,0,0,.041,0,.2.2,0,0,0,.2-.161,1.14,1.14,0,0,0-.128-.79.2.2,0,0,0-.278-.062.2.2,0,0,0-.09.182.2.2,0,0,0-.023-.058l-.34-.528a.2.2,0,0,0-.367.144c0,.016.157.9.293,1.963-.154-.218-.309-.431-.458-.634-.024-.3-.049-.586-.07-.819a.205.205,0,0,0,.033-.013.2.2,0,0,0,.09-.27l-.2-.4a.2.2,0,0,0-.38.11c.024.24.049.506.074.785-.127-.168-.245-.321-.346-.451a.2.2,0,0,0-.041-.333l-.4-.2a.2.2,0,0,0-.247.306c.011.014.506.635,1.1,1.436a16.178,16.178,0,0,1,.075,3c-.018.053-.049.116-.078.118-.122.017-.412-.255-.558-.546a.28.28,0,0,0-.27-.182c-.216.013-.3.251-.454.683a2.833,2.833,0,0,1-.4.852,2.285,2.285,0,0,1-.25-.792.2.2,0,0,0,.389-.068c0-.3-.21-2.585-.327-3.838a.2.2,0,0,0,.116-.25l-.2-.6a.2.2,0,0,0-.391.083c.137,1.435.393,4.208.4,4.591l0-.01a.2.2,0,1,0-.4.057c.059.411.209,1.118.555,1.234a.336.336,0,0,0,.107.017.4.4,0,0,0,.283-.131,2.9,2.9,0,0,0,.5-1.005c.03-.083.065-.182.1-.266.185.27.507.605.833.579a.494.494,0,0,0,.431-.392,11.333,11.333,0,0,0-.007-2.512c.17.238.339.481.5.721.063.6.108,1.206.108,1.7A.2.2,0,0,0,325.032,171.082Z" transform="translate(-308.69 -165.662)" fill="#f5f5f5"/>
      <path id="Path_199830" data-name="Path 199830" d="M382.841,170.43c-.143-1.062-.341-2.292-.467-3.047a.2.2,0,0,0,.169-.036.2.2,0,0,0,.038-.282l-.365-.478a.2.2,0,0,0-.358.157c0,.021.362,2.086.584,3.739a1.886,1.886,0,0,1-.331,1.51.89.89,0,0,1-.738.275.2.2,0,1,0-.025.4c.034,0,.067,0,.1,0a1.27,1.27,0,0,0,.957-.406A2.247,2.247,0,0,0,382.841,170.43Z" transform="translate(-364.972 -166.068)" fill="#f5f5f5"/>
      <path id="Path_199831" data-name="Path 199831" d="M371.068,256.2a.2.2,0,0,0,.01.283.084.084,0,0,1,.024.042.1.1,0,0,1-.03.045.2.2,0,1,0,.285.284.457.457,0,0,0,.148-.343.479.479,0,0,0-.158-.328A.2.2,0,0,0,371.068,256.2Z" transform="translate(-355.412 -250.507)" fill="#f5f5f5"/>
      <path id="Path_199832" data-name="Path 199832" d="M156.433,327.022h-1.408v-.2a.2.2,0,1,0-.4,0v.2H143.957a2.809,2.809,0,0,0,1.811.6h8.854v.4a.2.2,0,0,0,.2.2h1.61a.6.6,0,1,0,0-1.207Zm0,.8h-1.409v-.2h1.61l-.036-.108a.2.2,0,0,1,.036.108A.2.2,0,0,1,156.433,327.827Z" transform="translate(-141.486 -316.921)" fill="#f5f5f5"/>
    </g>
  </g>
</svg>
