<svg xmlns="http://www.w3.org/2000/svg" width="27.373" height="22.811" viewBox="0 0 27.373 22.811">
  <path id="name" d="M24.237,2.281H18.249V2a2,2,0,0,0-2-2H11.12a2,2,0,0,0-2,2v.285H3.137A3.139,3.139,0,0,0,0,5.418V19.675a3.139,3.139,0,0,0,3.137,3.137h21.1a3.139,3.139,0,0,0,3.137-3.137V5.418a3.139,3.139,0,0,0-3.137-3.136ZM15.969,4.562H11.405V2.281h4.562ZM8.554,7.984A2.851,2.851,0,1,1,5.7,10.835,2.855,2.855,0,0,1,8.554,7.984Zm5.132,10.55a.856.856,0,0,1-.855.855H4.277a.856.856,0,0,1-.855-.855v-.57a3.139,3.139,0,0,1,3.137-3.137H10.55a3.139,3.139,0,0,1,3.137,3.137Zm9.41.855H16.823a.855.855,0,1,1,0-1.711H23.1a.855.855,0,1,1,0,1.711Zm0-4.562H16.823a.855.855,0,1,1,0-1.711H23.1a.855.855,0,1,1,0,1.711Zm0-4.562H16.823a.855.855,0,1,1,0-1.711H23.1a.855.855,0,1,1,0,1.711Zm0,0" fill="#e33e71"/>
</svg>
