<svg xmlns="http://www.w3.org/2000/svg" width="20.855" height="28.404" viewBox="0 0 20.855 28.404">
  <g id="identification" transform="translate(-0.5)">
    <path id="Path_243082" data-name="Path 243082" d="M19.244,34h-5.95v1.215a.445.445,0,0,1-.448.448H9.008a.445.445,0,0,1-.448-.448V34H2.611A2.113,2.113,0,0,0,.5,36.111V58.118a2.113,2.113,0,0,0,2.111,2.111H19.244a2.113,2.113,0,0,0,2.111-2.111V36.111A2.113,2.113,0,0,0,19.244,34Zm-8.317,4.478a3.115,3.115,0,1,1-3.115,3.115A3.116,3.116,0,0,1,10.928,38.478ZM7.467,47.754a4.865,4.865,0,0,1,6.922,0,5.123,5.123,0,0,1,1.426,3.621.445.445,0,0,1-.448.448H6.488a.445.445,0,0,1-.448-.448A5.123,5.123,0,0,1,7.467,47.754ZM15.1,54.408a.445.445,0,0,1-.448.448H7.2a.448.448,0,1,1,0-.9h7.453a.444.444,0,0,1,.441.448ZM17.85,57.67H4.006a.448.448,0,1,1,0-.9h13.85a.445.445,0,0,1,.448.448.451.451,0,0,1-.454.448Zm0,0" transform="translate(0 -31.825)" fill="#e33e71"/>
    <path id="Path_243083" data-name="Path 243083" d="M131.369,118.021a2.22,2.22,0,1,1-2.547,1.836A2.22,2.22,0,0,1,131.369,118.021Zm0,0" transform="translate(-120.086 -110.443)" fill="#e33e71"/>
    <path id="Path_243084" data-name="Path 243084" d="M140.5,0h2.943V2.943H140.5Zm0,0" transform="translate(-131.044)" fill="#e33e71"/>
    <path id="Path_243085" data-name="Path 243085" d="M108.193,241.576a3.969,3.969,0,0,0-5.643,0,4.191,4.191,0,0,0-1.152,2.546h7.946a4.174,4.174,0,0,0-1.152-2.546Zm0,0" transform="translate(-94.444 -225.02)" fill="#e33e71"/>
  </g>
</svg>
