<svg id="Group_67481" data-name="Group 67481" xmlns="http://www.w3.org/2000/svg" width="13.67" height="13.908" viewBox="0 0 13.67 13.908">
  <g id="Group_67344" data-name="Group 67344" transform="translate(11.876 0.686)">
    <g id="Group_67343" data-name="Group 67343">
      <path id="Path_239438" data-name="Path 239438" d="M210.917,25.9a.951.951,0,0,1-.8.822c.635.03.793.863.793.863.014-.594.818-.872.818-.872C211.126,26.676,210.917,25.9,210.917,25.9Z" transform="translate(-210.117 -25.899)" fill="#d7e057"/>
    </g>
  </g>
  <g id="Group_67346" data-name="Group 67346" transform="translate(11.784 0.594)">
    <g id="Group_67345" data-name="Group 67345">
      <path id="Path_239439" data-name="Path 239439" d="M210.328,25.212c-.528-.032-.726-.738-.728-.745a.092.092,0,0,0-.181.016.852.852,0,0,1-.722.739.092.092,0,0,0,.01.183c.554.026.706.781.707.788a.092.092,0,0,0,.09.075h.008a.092.092,0,0,0,.084-.09c.012-.522.748-.784.756-.787a.092.092,0,0,0-.025-.179Zm-.833.635a1.073,1.073,0,0,0-.466-.545.988.988,0,0,0,.5-.508,1.124,1.124,0,0,0,.512.535A1.308,1.308,0,0,0,209.495,25.847Z" transform="translate(-208.619 -24.398)" fill="#3a312a"/>
    </g>
  </g>
  <g id="Group_67348" data-name="Group 67348" transform="translate(10.778 1.729)">
    <g id="Group_67347" data-name="Group 67347">
      <path id="Path_239440" data-name="Path 239440" d="M192.8,42.879a.673.673,0,0,1-.566.581c.449.021.561.61.561.61.01-.42.578-.617.578-.617C192.945,43.429,192.8,42.879,192.8,42.879Z" transform="translate(-192.231 -42.879)" fill="#d7e057"/>
    </g>
  </g>
  <g id="Group_67350" data-name="Group 67350" transform="translate(10.686 1.636)">
    <g id="Group_67349" data-name="Group 67349">
      <path id="Path_239441" data-name="Path 239441" d="M191.97,41.954c-.354-.021-.489-.5-.491-.507a.092.092,0,0,0-.181.016.577.577,0,0,1-.488.5.092.092,0,0,0,.01.183c.37.017.474.531.475.536a.092.092,0,0,0,.09.075h.008a.092.092,0,0,0,.084-.09c.008-.35.511-.53.516-.532a.092.092,0,0,0-.025-.179Zm-.588.417a.788.788,0,0,0-.273-.324.735.735,0,0,0,.3-.3.823.823,0,0,0,.3.321A.961.961,0,0,0,191.382,42.371Z" transform="translate(-190.733 -41.378)" fill="#3a312a"/>
    </g>
  </g>
  <g id="Group_67352" data-name="Group 67352" transform="translate(10.778 0.092)">
    <g id="Group_67351" data-name="Group 67351">
      <path id="Path_239442" data-name="Path 239442" d="M192.8,16.222a.673.673,0,0,1-.566.581c.449.021.561.61.561.61.01-.42.578-.617.578-.617C192.945,16.772,192.8,16.222,192.8,16.222Z" transform="translate(-192.231 -16.222)" fill="#d7e057"/>
    </g>
  </g>
  <g id="Group_67354" data-name="Group 67354" transform="translate(10.686 0)">
    <g id="Group_67353" data-name="Group 67353">
      <path id="Path_239443" data-name="Path 239443" d="M191.97,15.3c-.354-.021-.489-.5-.491-.507a.092.092,0,0,0-.181.016.577.577,0,0,1-.488.5.092.092,0,0,0,.01.183c.37.017.474.531.475.536a.092.092,0,0,0,.09.075h.008a.092.092,0,0,0,.084-.09c.008-.35.511-.53.516-.532a.092.092,0,0,0-.025-.179Zm-.588.417a.787.787,0,0,0-.273-.324.735.735,0,0,0,.3-.3.822.822,0,0,0,.3.321A.961.961,0,0,0,191.382,15.714Z" transform="translate(-190.733 -14.721)" fill="#3a312a"/>
    </g>
  </g>
  <g id="Group_67356" data-name="Group 67356" transform="translate(1.965 0.841)">
    <g id="Group_67355" data-name="Group 67355">
      <path id="Path_239444" data-name="Path 239444" d="M57.981,38.6l-8.451-.01.012-10.17h-.859l0,3.107v.821l-.008,6.672a.429.429,0,0,0,.429.43l8.881.01a.43.43,0,1,0,0-.859Z" transform="translate(-48.67 -28.419)" fill="#8ac6dd"/>
    </g>
  </g>
  <g id="Group_67358" data-name="Group 67358" transform="translate(1.873 0.749)">
    <g id="Group_67357" data-name="Group 67357">
      <path id="Path_239445" data-name="Path 239445" d="M56.941,37.252a.518.518,0,0,0-.369-.153l-8.359-.01.012-10.078a.092.092,0,0,0-.092-.092h-.86a.092.092,0,0,0-.092.092l0,3.107a.092.092,0,0,0,.092.092h0a.092.092,0,0,0,.092-.092l0-3.015h.675l-.012,10.078a.092.092,0,0,0,.092.092l8.451.01a.338.338,0,1,1,0,.675h0l-8.881-.01a.337.337,0,0,1-.337-.338l.008-6.672a.092.092,0,0,0-.092-.092h0a.092.092,0,0,0-.092.092l-.008,6.672a.521.521,0,0,0,.521.522l8.881.01h0a.522.522,0,0,0,.369-.89Z" transform="translate(-47.169 -26.918)" fill="#3a312a"/>
    </g>
  </g>
  <g id="Group_67360" data-name="Group 67360" transform="translate(2.561 11.864)">
    <g id="Group_67359" data-name="Group 67359">
      <path id="Path_239446" data-name="Path 239446" d="M59.353,207.985a.972.972,0,1,0,.971.973A.972.972,0,0,0,59.353,207.985Z" transform="translate(-58.38 -207.985)" fill="#87796f"/>
    </g>
  </g>
  <g id="Group_67362" data-name="Group 67362" transform="translate(2.469 11.772)">
    <g id="Group_67361" data-name="Group 67361">
      <path id="Path_239447" data-name="Path 239447" d="M58.7,206.8a1.057,1.057,0,0,0-.752-.313h0a1.064,1.064,0,0,0,0,2.129h0A1.064,1.064,0,0,0,58.7,206.8Zm-.753,1.632h0a.88.88,0,0,1,0-1.76h0a.88.88,0,0,1,0,1.76Z" transform="translate(-56.881 -206.485)" fill="#3a312a"/>
    </g>
  </g>
  <g id="Group_67364" data-name="Group 67364" transform="translate(3.103 12.407)">
    <g id="Group_67363" data-name="Group 67363" transform="translate(0 0)">
      <circle id="Ellipse_3351" data-name="Ellipse 3351" cx="0.398" cy="0.398" r="0.398" transform="translate(0 0.793) rotate(-85.233)" fill="#fce8cb"/>
    </g>
  </g>
  <g id="Group_67366" data-name="Group 67366" transform="translate(3.043 12.347)">
    <g id="Group_67365" data-name="Group 67365">
      <path id="Path_239448" data-name="Path 239448" d="M67.075,215.987a.486.486,0,0,0-.346-.144h0a.49.49,0,0,0,0,.98h0a.49.49,0,0,0,.347-.836Zm-.131.562a.3.3,0,0,1-.216.089h0a.306.306,0,0,1,0-.611h0a.306.306,0,0,1,.215.522Z" transform="translate(-66.238 -215.843)" fill="#3a312a"/>
    </g>
  </g>
  <g id="Group_67368" data-name="Group 67368" transform="translate(8.887 11.872)">
    <g id="Group_67367" data-name="Group 67367">
      <path id="Path_239449" data-name="Path 239449" d="M162.4,208.1a.972.972,0,1,0,.971.973A.972.972,0,0,0,162.4,208.1Z" transform="translate(-161.422 -208.105)" fill="#87796f"/>
    </g>
  </g>
  <g id="Group_67370" data-name="Group 67370" transform="translate(8.794 11.78)">
    <g id="Group_67369" data-name="Group 67369">
      <path id="Path_239450" data-name="Path 239450" d="M161.74,206.918a1.057,1.057,0,0,0-.752-.313h0a1.064,1.064,0,0,0,0,2.129h0a1.064,1.064,0,0,0,.754-1.816Zm-.753,1.632h0a.88.88,0,0,1,0-1.76h0a.88.88,0,0,1,0,1.76Z" transform="translate(-159.922 -206.605)" fill="#3a312a"/>
    </g>
  </g>
  <g id="Group_67372" data-name="Group 67372" transform="translate(9.461 12.446)">
    <g id="Group_67371" data-name="Group 67371">
      <path id="Path_239451" data-name="Path 239451" d="M171.178,217.463a.4.4,0,1,0,.4.4A.4.4,0,0,0,171.178,217.463Z" transform="translate(-170.78 -217.463)" fill="#fce8cb"/>
    </g>
  </g>
  <g id="Group_67374" data-name="Group 67374" transform="translate(9.369 12.354)">
    <g id="Group_67373" data-name="Group 67373">
      <path id="Path_239452" data-name="Path 239452" d="M170.116,216.107a.486.486,0,0,0-.346-.144h0a.49.49,0,0,0,0,.98h0a.49.49,0,0,0,.347-.836Zm-.131.562a.3.3,0,0,1-.216.089h0a.306.306,0,0,1,0-.611h0a.306.306,0,0,1,.216.522Z" transform="translate(-169.279 -215.963)" fill="#3a312a"/>
    </g>
  </g>
  <g id="Group_67376" data-name="Group 67376" transform="translate(0.092 0.103)">
    <g id="Group_67375" data-name="Group 67375">
      <path id="Path_239453" data-name="Path 239453" d="M18.533,16.391a.368.368,0,0,0,0,.737l2.379,0v-.737Z" transform="translate(-18.164 -16.391)" fill="#87796f"/>
    </g>
  </g>
  <g id="Group_67378" data-name="Group 67378" transform="translate(0 0.01)">
    <g id="Group_67377" data-name="Group 67377">
      <path id="Path_239454" data-name="Path 239454" d="M19.57,14.922a.092.092,0,0,0-.065-.027l-2.379,0h0a.46.46,0,0,0,0,.921l2.379,0h0a.092.092,0,0,0,.092-.092v-.737A.092.092,0,0,0,19.57,14.922Zm-.158.71-2.287,0a.276.276,0,0,1,0-.553h0l2.287,0Z" transform="translate(-16.665 -14.892)" fill="#3a312a"/>
    </g>
  </g>
  <g id="Group_67380" data-name="Group 67380" transform="translate(10.599 11.113)">
    <g id="Group_67379" data-name="Group 67379">
      <path id="Path_239455" data-name="Path 239455" d="M190,195.743h-.675a.338.338,0,1,1,0,.675H190a.338.338,0,0,0,0-.675Z" transform="translate(-189.323 -195.742)" fill="#68a8bc"/>
    </g>
  </g>
  <g id="Group_67382" data-name="Group 67382" transform="translate(3.581 8.22)">
    <g id="Group_67381" data-name="Group 67381">
      <path id="Path_239456" data-name="Path 239456" d="M74.992,148.621v2.652a.141.141,0,0,0,.141.141h3.229a.141.141,0,0,0,.141-.141v-2.652Z" transform="translate(-74.992 -148.621)" fill="#e33e71"/>
    </g>
  </g>
  <g id="Group_67384" data-name="Group 67384" transform="translate(3.489 8.128)">
    <g id="Group_67383" data-name="Group 67383">
      <path id="Path_239457" data-name="Path 239457" d="M77.1,147.121H73.584a.092.092,0,0,0-.092.092v2.652a.234.234,0,0,0,.233.233h3.229a.234.234,0,0,0,.233-.233v-2.652A.092.092,0,0,0,77.1,147.121ZM77,149.865a.049.049,0,0,1-.049.049H73.725a.049.049,0,0,1-.049-.049v-2.56H77Z" transform="translate(-73.492 -147.121)" fill="#3a312a"/>
    </g>
  </g>
  <g id="Group_67386" data-name="Group 67386" transform="translate(3.356 7.642)">
    <g id="Group_67385" data-name="Group 67385">
      <path id="Path_239458" data-name="Path 239458" d="M75.23,139.2H71.463a.127.127,0,0,0-.127.127v.324a.127.127,0,0,0,.127.127H75.23a.127.127,0,0,0,.127-.127v-.324A.127.127,0,0,0,75.23,139.2Z" transform="translate(-71.336 -139.204)" fill="#f16c7a"/>
    </g>
  </g>
  <g id="Group_67388" data-name="Group 67388" transform="translate(3.264 7.55)">
    <g id="Group_67387" data-name="Group 67387">
      <path id="Path_239459" data-name="Path 239459" d="M73.822,137.7H70.055a.219.219,0,0,0-.219.219v.324a.219.219,0,0,0,.219.219h3.767a.219.219,0,0,0,.219-.219v-.324A.219.219,0,0,0,73.822,137.7Zm.035.543a.035.035,0,0,1-.035.035H70.055a.035.035,0,0,1-.035-.035v-.324a.035.035,0,0,1,.035-.035h3.767a.035.035,0,0,1,.035.035Z" transform="translate(-69.836 -137.704)" fill="#3a312a"/>
    </g>
  </g>
  <g id="Group_67390" data-name="Group 67390" transform="translate(4.712 7.642)">
    <g id="Group_67389" data-name="Group 67389">
      <rect id="Rectangle_8931" data-name="Rectangle 8931" width="1.345" height="0.578" fill="#d7e057"/>
    </g>
  </g>
  <g id="Group_67392" data-name="Group 67392" transform="translate(4.62 7.55)">
    <g id="Group_67391" data-name="Group 67391">
      <path id="Path_239460" data-name="Path 239460" d="M93.361,137.7H92.016a.092.092,0,0,0-.092.092v.578a.092.092,0,0,0,.092.092h1.345a.092.092,0,0,0,.092-.092V137.8A.092.092,0,0,0,93.361,137.7Zm-.092.578H92.108v-.394h1.161v.394Z" transform="translate(-91.924 -137.704)" fill="#3a312a"/>
    </g>
  </g>
  <g id="Group_67394" data-name="Group 67394" transform="translate(4.712 8.22)">
    <g id="Group_67393" data-name="Group 67393">
      <path id="Path_239461" data-name="Path 239461" d="M93.424,148.627v.891l.408-.288.138.288.165-.15.192.15.21-.167.231.167v-.891Z" transform="translate(-93.424 -148.627)" fill="#d7e057"/>
    </g>
  </g>
  <g id="Group_67396" data-name="Group 67396" transform="translate(4.62 8.128)">
    <g id="Group_67395" data-name="Group 67395">
      <path id="Path_239462" data-name="Path 239462" d="M93.361,147.127H92.016a.092.092,0,0,0-.092.092v.891a.092.092,0,0,0,.145.075l.319-.225.091.19a.092.092,0,0,0,.065.051l.018,0a.092.092,0,0,0,.062-.024l.108-.1.131.1a.092.092,0,0,0,.114,0l.156-.123.174.126a.092.092,0,0,0,.146-.075v-.891A.092.092,0,0,0,93.361,147.127Zm-.092.8-.085-.061a.092.092,0,0,0-.111,0l-.154.122-.135-.106a.092.092,0,0,0-.119,0l-.074.067-.085-.177a.092.092,0,0,0-.136-.035l-.263.186v-.621h1.161Z" transform="translate(-91.924 -147.127)" fill="#3a312a"/>
    </g>
  </g>
  <g id="Group_67398" data-name="Group 67398" transform="translate(6.399 8.312)">
    <g id="Group_67397" data-name="Group 67397">
      <path id="Path_239463" data-name="Path 239463" d="M120.943,150.118v2.561a.049.049,0,0,1-.05.049h.552a.049.049,0,0,0,.05-.049v-2.561Z" transform="translate(-120.893 -150.118)" fill="#ce4e61"/>
    </g>
  </g>
  <g id="Group_67400" data-name="Group 67400" transform="translate(6.697 7.734)">
    <g id="Group_67399" data-name="Group 67399">
      <path id="Path_239464" data-name="Path 239464" d="M126.316,140.708h-.553a.035.035,0,0,1,.035.034v.325a.035.035,0,0,1-.035.034h.553a.035.035,0,0,0,.035-.034v-.325A.035.035,0,0,0,126.316,140.708Z" transform="translate(-125.763 -140.708)" fill="#ce4e61"/>
    </g>
  </g>
  <g id="Group_67402" data-name="Group 67402" transform="translate(3.581 4.844)">
    <g id="Group_67401" data-name="Group 67401">
      <path id="Path_239465" data-name="Path 239465" d="M74.992,93.621v2.652a.141.141,0,0,0,.141.141h3.229a.141.141,0,0,0,.141-.141V93.621Z" transform="translate(-74.992 -93.621)" fill="#e33e71"/>
    </g>
  </g>
  <g id="Group_67404" data-name="Group 67404" transform="translate(3.489 4.752)">
    <g id="Group_67403" data-name="Group 67403">
      <path id="Path_239466" data-name="Path 239466" d="M77.1,92.121H73.584a.092.092,0,0,0-.092.092v2.652a.234.234,0,0,0,.233.233h3.229a.234.234,0,0,0,.233-.233V92.213A.092.092,0,0,0,77.1,92.121ZM77,94.865a.049.049,0,0,1-.049.049H73.725a.049.049,0,0,1-.049-.049v-2.56H77Z" transform="translate(-73.492 -92.121)" fill="#3a312a"/>
    </g>
  </g>
  <g id="Group_67406" data-name="Group 67406" transform="translate(3.356 4.266)">
    <g id="Group_67405" data-name="Group 67405">
      <path id="Path_239467" data-name="Path 239467" d="M75.23,84.2H71.463a.127.127,0,0,0-.127.127v.324a.127.127,0,0,0,.127.127H75.23a.127.127,0,0,0,.127-.127v-.324A.127.127,0,0,0,75.23,84.2Z" transform="translate(-71.336 -84.204)" fill="#f16c7a"/>
    </g>
  </g>
  <g id="Group_67408" data-name="Group 67408" transform="translate(3.264 4.173)">
    <g id="Group_67407" data-name="Group 67407">
      <path id="Path_239468" data-name="Path 239468" d="M73.822,82.7H70.055a.219.219,0,0,0-.219.219v.324a.219.219,0,0,0,.219.219h3.767a.219.219,0,0,0,.219-.219v-.324A.219.219,0,0,0,73.822,82.7Zm.035.543a.035.035,0,0,1-.035.035H70.055a.035.035,0,0,1-.035-.035v-.324a.035.035,0,0,1,.035-.035h3.767a.035.035,0,0,1,.035.035Z" transform="translate(-69.836 -82.704)" fill="#3a312a"/>
    </g>
  </g>
  <g id="Group_67410" data-name="Group 67410" transform="translate(4.712 4.266)">
    <g id="Group_67409" data-name="Group 67409">
      <rect id="Rectangle_8932" data-name="Rectangle 8932" width="1.345" height="0.578" fill="#d7e057"/>
    </g>
  </g>
  <g id="Group_67412" data-name="Group 67412" transform="translate(4.62 4.173)">
    <g id="Group_67411" data-name="Group 67411">
      <path id="Path_239469" data-name="Path 239469" d="M93.361,82.7H92.016a.092.092,0,0,0-.092.092v.578a.092.092,0,0,0,.092.092h1.345a.092.092,0,0,0,.092-.092V82.8A.092.092,0,0,0,93.361,82.7Zm-.092.578H92.108v-.394h1.161v.394Z" transform="translate(-91.924 -82.704)" fill="#3a312a"/>
    </g>
  </g>
  <g id="Group_67414" data-name="Group 67414" transform="translate(4.712 4.844)">
    <g id="Group_67413" data-name="Group 67413">
      <path id="Path_239470" data-name="Path 239470" d="M93.424,93.627v.891l.408-.288.138.288.165-.15.192.15.21-.167.231.167v-.891Z" transform="translate(-93.424 -93.627)" fill="#d7e057"/>
    </g>
  </g>
  <g id="Group_67416" data-name="Group 67416" transform="translate(4.62 4.752)">
    <g id="Group_67415" data-name="Group 67415">
      <path id="Path_239471" data-name="Path 239471" d="M93.361,92.127H92.016a.092.092,0,0,0-.092.092v.891a.092.092,0,0,0,.145.075l.319-.225.091.19a.092.092,0,0,0,.065.051l.018,0a.092.092,0,0,0,.062-.024l.108-.1.131.1a.092.092,0,0,0,.114,0l.156-.123.174.126a.092.092,0,0,0,.146-.075v-.891A.092.092,0,0,0,93.361,92.127Zm-.092.8-.085-.061a.092.092,0,0,0-.111,0l-.154.122-.135-.106a.092.092,0,0,0-.119,0l-.074.067-.085-.177a.092.092,0,0,0-.136-.035l-.263.186v-.621h1.161Z" transform="translate(-91.924 -92.127)" fill="#3a312a"/>
    </g>
  </g>
  <g id="Group_67418" data-name="Group 67418" transform="translate(6.399 4.936)">
    <g id="Group_67417" data-name="Group 67417">
      <path id="Path_239472" data-name="Path 239472" d="M120.943,95.118v2.561a.049.049,0,0,1-.05.049h.552a.049.049,0,0,0,.05-.049V95.118Z" transform="translate(-120.893 -95.118)" fill="#ce4e61"/>
    </g>
  </g>
  <g id="Group_67420" data-name="Group 67420" transform="translate(6.697 4.358)">
    <g id="Group_67419" data-name="Group 67419">
      <path id="Path_239473" data-name="Path 239473" d="M126.316,85.708h-.553a.035.035,0,0,1,.035.034v.325a.035.035,0,0,1-.035.034h.553a.035.035,0,0,0,.035-.034v-.325A.035.035,0,0,0,126.316,85.708Z" transform="translate(-125.763 -85.708)" fill="#ce4e61"/>
    </g>
  </g>
  <g id="Group_67422" data-name="Group 67422" transform="translate(7.632 8.22)">
    <g id="Group_67421" data-name="Group 67421">
      <path id="Path_239474" data-name="Path 239474" d="M140.992,148.621v2.652a.141.141,0,0,0,.141.141h3.229a.141.141,0,0,0,.141-.141v-2.652Z" transform="translate(-140.992 -148.621)" fill="#e33e71"/>
    </g>
  </g>
  <g id="Group_67424" data-name="Group 67424" transform="translate(7.54 8.128)">
    <g id="Group_67423" data-name="Group 67423">
      <path id="Path_239475" data-name="Path 239475" d="M143.1,147.121h-3.512a.092.092,0,0,0-.092.092v2.652a.234.234,0,0,0,.233.233h3.229a.234.234,0,0,0,.233-.233v-2.652A.092.092,0,0,0,143.1,147.121ZM143,149.865a.049.049,0,0,1-.049.049h-3.229a.049.049,0,0,1-.049-.049v-2.56H143v2.56Z" transform="translate(-139.492 -147.121)" fill="#3a312a"/>
    </g>
  </g>
  <g id="Group_67426" data-name="Group 67426" transform="translate(7.408 7.642)">
    <g id="Group_67425" data-name="Group 67425">
      <path id="Path_239476" data-name="Path 239476" d="M141.23,139.2h-3.767a.127.127,0,0,0-.127.127v.324a.127.127,0,0,0,.127.127h3.767a.127.127,0,0,0,.127-.127v-.324A.127.127,0,0,0,141.23,139.2Z" transform="translate(-137.336 -139.204)" fill="#f16c7a"/>
    </g>
  </g>
  <g id="Group_67428" data-name="Group 67428" transform="translate(7.316 7.55)">
    <g id="Group_67427" data-name="Group 67427">
      <path id="Path_239477" data-name="Path 239477" d="M139.823,137.7h-3.767a.219.219,0,0,0-.219.219v.324a.219.219,0,0,0,.219.219h3.767a.219.219,0,0,0,.219-.219v-.324A.219.219,0,0,0,139.823,137.7Zm.035.543a.035.035,0,0,1-.035.035h-3.767a.035.035,0,0,1-.035-.035v-.324a.035.035,0,0,1,.035-.035h3.767a.035.035,0,0,1,.035.035Z" transform="translate(-135.837 -137.704)" fill="#3a312a"/>
    </g>
  </g>
  <g id="Group_67430" data-name="Group 67430" transform="translate(8.764 7.642)">
    <g id="Group_67429" data-name="Group 67429">
      <rect id="Rectangle_8933" data-name="Rectangle 8933" width="1.345" height="0.578" fill="#d7e057"/>
    </g>
  </g>
  <g id="Group_67432" data-name="Group 67432" transform="translate(8.672 7.55)">
    <g id="Group_67431" data-name="Group 67431">
      <path id="Path_239478" data-name="Path 239478" d="M159.362,137.7h-1.345a.092.092,0,0,0-.092.092v.578a.092.092,0,0,0,.092.092h1.345a.092.092,0,0,0,.092-.092V137.8A.092.092,0,0,0,159.362,137.7Zm-.092.578h-1.161v-.394h1.161Z" transform="translate(-157.925 -137.704)" fill="#3a312a"/>
    </g>
  </g>
  <g id="Group_67434" data-name="Group 67434" transform="translate(8.764 8.22)">
    <g id="Group_67433" data-name="Group 67433">
      <path id="Path_239479" data-name="Path 239479" d="M159.424,148.627v.891l.408-.288.138.288.165-.15.192.15.21-.167.231.167v-.891Z" transform="translate(-159.424 -148.627)" fill="#d7e057"/>
    </g>
  </g>
  <g id="Group_67436" data-name="Group 67436" transform="translate(8.672 8.128)">
    <g id="Group_67435" data-name="Group 67435">
      <path id="Path_239480" data-name="Path 239480" d="M159.362,147.127h-1.345a.092.092,0,0,0-.092.092v.891a.092.092,0,0,0,.145.075l.319-.225.091.19a.092.092,0,0,0,.065.051l.018,0a.092.092,0,0,0,.062-.024l.108-.1.131.1a.092.092,0,0,0,.114,0l.156-.123.174.126a.092.092,0,0,0,.146-.075v-.891A.092.092,0,0,0,159.362,147.127Zm-.092.8-.085-.061a.092.092,0,0,0-.111,0l-.154.122-.135-.106a.092.092,0,0,0-.119,0l-.074.067-.085-.177a.092.092,0,0,0-.136-.035l-.263.186v-.621h1.161v.619Z" transform="translate(-157.925 -147.127)" fill="#3a312a"/>
    </g>
  </g>
  <g id="Group_67438" data-name="Group 67438" transform="translate(10.45 8.312)">
    <g id="Group_67437" data-name="Group 67437">
      <path id="Path_239481" data-name="Path 239481" d="M186.943,150.118v2.561a.049.049,0,0,1-.05.049h.553a.049.049,0,0,0,.05-.049v-2.561Z" transform="translate(-186.893 -150.118)" fill="#ce4e61"/>
    </g>
  </g>
  <g id="Group_67440" data-name="Group 67440" transform="translate(10.749 7.734)">
    <g id="Group_67439" data-name="Group 67439">
      <path id="Path_239482" data-name="Path 239482" d="M192.315,140.708h-.553a.035.035,0,0,1,.035.034v.325a.035.035,0,0,1-.035.034h.553a.035.035,0,0,0,.035-.034v-.325A.035.035,0,0,0,192.315,140.708Z" transform="translate(-191.763 -140.708)" fill="#ce4e61"/>
    </g>
  </g>
  <g id="Group_67442" data-name="Group 67442" transform="translate(8.884 4.057)">
    <g id="Group_67441" data-name="Group 67441">
      <path id="Path_239483" data-name="Path 239483" d="M162.372,80.815l-.2.51-.107.268-.671,1.687a.141.141,0,0,0,.079.183l3,1.193a.141.141,0,0,0,.183-.079l.98-2.465Z" transform="translate(-161.381 -80.815)" fill="#e33e71"/>
    </g>
  </g>
  <g id="Group_67444" data-name="Group 67444" transform="translate(8.792 3.965)">
    <g id="Group_67443" data-name="Group 67443">
      <path id="Path_239484" data-name="Path 239484" d="M164.261,80.618,161,79.32a.092.092,0,0,0-.12.052l-.309.778h0l-.671,1.687a.233.233,0,0,0,.131.3l3,1.193a.233.233,0,0,0,.3-.131l.98-2.465A.092.092,0,0,0,164.261,80.618Zm-1.1,2.516a.049.049,0,0,1-.064.028l-3-1.193a.049.049,0,0,1-.027-.026.049.049,0,0,1,0-.038l.671-1.687h0l.275-.692,3.092,1.23Z" transform="translate(-159.881 -79.314)" fill="#3a312a"/>
    </g>
  </g>
  <g id="Group_67446" data-name="Group 67446" transform="translate(9.704 3.475)">
    <g id="Group_67445" data-name="Group 67445">
      <path id="Path_239485" data-name="Path 239485" d="M178.524,72.732l-.5-.2-.435-.173-2.561-1.018a.127.127,0,0,0-.165.071l-.12.3a.127.127,0,0,0,.071.165l3.5,1.392a.127.127,0,0,0,.165-.071l.12-.3A.127.127,0,0,0,178.524,72.732Z" transform="translate(-174.73 -71.331)" fill="#f16c7a"/>
    </g>
  </g>
  <g id="Group_67448" data-name="Group 67448" transform="translate(9.612 3.383)">
    <g id="Group_67447" data-name="Group 67447">
      <path id="Path_239486" data-name="Path 239486" d="M177.272,71.353a.217.217,0,0,0-.12-.117l-.94-.374-2.561-1.018a.219.219,0,0,0-.284.123l-.12.3a.219.219,0,0,0,.123.284l3.5,1.392a.219.219,0,0,0,.284-.123l.12-.3A.217.217,0,0,0,177.272,71.353Zm-.169.1-.12.3a.035.035,0,0,1-.045.02l-3.5-1.392a.035.035,0,0,1-.02-.045l.12-.3a.035.035,0,0,1,.032-.022l.013,0,3.5,1.392a.035.035,0,0,1,.019.045Z" transform="translate(-173.231 -69.829)" fill="#3a312a"/>
    </g>
  </g>
  <g id="Group_67450" data-name="Group 67450" transform="translate(10.925 3.939)">
    <g id="Group_67449" data-name="Group 67449" transform="translate(0 0)">
      <rect id="Rectangle_8934" data-name="Rectangle 8934" width="0.578" height="1.345" transform="matrix(0.37, -0.929, 0.929, 0.37, 0, 0.537)" fill="#d7e057"/>
    </g>
  </g>
  <g id="Group_67452" data-name="Group 67452" transform="translate(10.834 3.846)">
    <g id="Group_67451" data-name="Group 67451">
      <path id="Path_239487" data-name="Path 239487" d="M194.728,77.88l-1.25-.5a.092.092,0,0,0-.12.052l-.214.537a.092.092,0,0,0,.051.12l1.25.5a.092.092,0,0,0,.12-.052L194.78,78A.092.092,0,0,0,194.728,77.88Zm-.3.5-1.078-.429.146-.366,1.078.429Z" transform="translate(-193.139 -77.377)" fill="#3a312a"/>
    </g>
  </g>
  <g id="Group_67454" data-name="Group 67454" transform="translate(10.596 4.476)">
    <g id="Group_67453" data-name="Group 67453">
      <path id="Path_239488" data-name="Path 239488" d="M189.6,87.632l-.329.828.486-.117.022.319.209-.079.123.211.257-.077.153.24.329-.828Z" transform="translate(-189.273 -87.632)" fill="#d7e057"/>
    </g>
  </g>
  <g id="Group_67456" data-name="Group 67456" transform="translate(10.504 4.384)">
    <g id="Group_67455" data-name="Group 67455">
      <path id="Path_239489" data-name="Path 239489" d="M189.53,86.685a.092.092,0,0,0-.051-.049l-1.25-.5a.092.092,0,0,0-.12.052l-.329.828a.092.092,0,0,0,.107.124l.38-.092.014.21a.092.092,0,0,0,.124.08l.136-.051.084.144a.092.092,0,0,0,.106.042l.19-.057.115.181a.092.092,0,0,0,.078.043h.009a.092.092,0,0,0,.077-.058l.329-.828A.093.093,0,0,0,189.53,86.685Zm-.433.663-.056-.088a.092.092,0,0,0-.078-.043.094.094,0,0,0-.027,0l-.188.056-.087-.148a.092.092,0,0,0-.112-.04l-.093.035-.013-.2a.092.092,0,0,0-.113-.083l-.313.076.229-.577,1.078.429Z" transform="translate(-187.775 -86.132)" fill="#3a312a"/>
    </g>
  </g>
  <g id="Group_67458" data-name="Group 67458" transform="translate(11.494 5.202)">
    <g id="Group_67457" data-name="Group 67457">
      <path id="Path_239490" data-name="Path 239490" d="M204.913,99.467l-.946,2.379a.049.049,0,0,1-.064.027l.513.2a.049.049,0,0,0,.064-.027l.946-2.379Z" transform="translate(-203.902 -99.467)" fill="#ce4e61"/>
    </g>
  </g>
  <g id="Group_67460" data-name="Group 67460" transform="translate(12.804 4.758)">
    <g id="Group_67459" data-name="Group 67459">
      <path id="Path_239491" data-name="Path 239491" d="M225.9,92.428l-.513-.2a.035.035,0,0,1,.02.045l-.12.3a.035.035,0,0,1-.045.019l.513.2a.035.035,0,0,0,.045-.019l.12-.3A.035.035,0,0,0,225.9,92.428Z" transform="translate(-225.243 -92.224)" fill="#ce4e61"/>
    </g>
  </g>
  <g id="Group_67462" data-name="Group 67462" transform="translate(5.197 1.061)">
    <g id="Group_67461" data-name="Group 67461">
      <path id="Path_239492" data-name="Path 239492" d="M101.916,32.007l-.123.534-.06.263-.2.882-.209.906a.141.141,0,0,0,.106.169l3.147.725a.141.141,0,0,0,.169-.106l.6-2.585Z" transform="translate(-101.317 -32.007)" fill="#e33e71"/>
    </g>
  </g>
  <g id="Group_67464" data-name="Group 67464" transform="translate(5.105 0.969)">
    <g id="Group_67463" data-name="Group 67463">
      <path id="Path_239493" data-name="Path 239493" d="M103.952,31.3l-3.422-.789a.092.092,0,0,0-.11.069l-.184.8a.092.092,0,0,0,.18.041l.163-.707,3.243.747-.575,2.495a.049.049,0,0,1-.022.031.048.048,0,0,1-.037.006l-3.147-.725A.049.049,0,0,1,100,33.2l.209-.906a.092.092,0,0,0-.179-.041l-.209.906a.233.233,0,0,0,.175.28l3.147.725a.238.238,0,0,0,.053.006.234.234,0,0,0,.227-.181l.6-2.585A.092.092,0,0,0,103.952,31.3Z" transform="translate(-99.817 -30.507)" fill="#3a312a"/>
    </g>
  </g>
  <g id="Group_67466" data-name="Group 67466" transform="translate(5.603 0.473)">
    <g id="Group_67465" data-name="Group 67465">
      <path id="Path_239494" data-name="Path 239494" d="M111.826,23.269l-.529-.122-.456-.105-2.685-.619a.127.127,0,0,0-.152.1l-.073.316a.127.127,0,0,0,.1.152l3.671.846a.127.127,0,0,0,.152-.1l.073-.316A.127.127,0,0,0,111.826,23.269Z" transform="translate(-107.928 -22.42)" fill="#f16c7a"/>
    </g>
  </g>
  <g id="Group_67468" data-name="Group 67468" transform="translate(5.51 0.381)">
    <g id="Group_67467" data-name="Group 67467">
      <path id="Path_239495" data-name="Path 239495" d="M110.438,21.773l-3.671-.846a.22.22,0,0,0-.263.164l-.073.316a.219.219,0,0,0,.164.263l3.671.846a.219.219,0,0,0,.263-.164l.073-.316A.219.219,0,0,0,110.438,21.773Zm-.015.221-.073.316a.035.035,0,0,1-.042.026l-3.671-.846a.035.035,0,0,1-.026-.042l.073-.316a.035.035,0,0,1,.034-.027h.008l3.671.846A.035.035,0,0,1,110.423,21.995Z" transform="translate(-106.427 -20.922)" fill="#3a312a"/>
    </g>
  </g>
  <g id="Group_67470" data-name="Group 67470" transform="translate(6.899 0.752)">
    <g id="Group_67469" data-name="Group 67469" transform="translate(0)">
      <rect id="Rectangle_8935" data-name="Rectangle 8935" width="0.578" height="1.345" transform="matrix(0.225, -0.975, 0.975, 0.225, 0, 0.563)" fill="#d7e057"/>
    </g>
  </g>
  <g id="Group_67472" data-name="Group 67472" transform="translate(6.807 0.66)">
    <g id="Group_67471" data-name="Group 67471">
      <path id="Path_239496" data-name="Path 239496" d="M129.093,25.776l-1.31-.3a.092.092,0,0,0-.11.069l-.13.563a.092.092,0,0,0,.069.11l1.31.3.021,0a.092.092,0,0,0,.09-.071l.13-.563A.092.092,0,0,0,129.093,25.776Zm-.22.543-1.131-.261.088-.384,1.131.261Z" transform="translate(-127.54 -25.471)" fill="#3a312a"/>
    </g>
  </g>
  <g id="Group_67474" data-name="Group 67474" transform="translate(6.699 1.316)">
    <g id="Group_67473" data-name="Group 67473">
      <path id="Path_239497" data-name="Path 239497" d="M125.98,36.153l-.2.868.462-.19.07.312.195-.109.154.19.242-.115.187.214.2-.868Z" transform="translate(-125.78 -36.153)" fill="#d7e057"/>
    </g>
  </g>
  <g id="Group_67476" data-name="Group 67476" transform="translate(6.606 1.224)">
    <g id="Group_67475" data-name="Group 67475">
      <path id="Path_239498" data-name="Path 239498" d="M125.9,34.957l-1.31-.3a.092.092,0,0,0-.11.069l-.2.868a.092.092,0,0,0,.125.106l.361-.148.046.206a.092.092,0,0,0,.135.06l.127-.071.1.129a.092.092,0,0,0,.111.025l.179-.085.141.162a.092.092,0,0,0,.069.031l.022,0a.092.092,0,0,0,.067-.069l.2-.868A.092.092,0,0,0,125.9,34.957Zm-.27.762-.069-.079a.092.092,0,0,0-.069-.031.091.091,0,0,0-.039.009l-.177.084-.108-.133a.092.092,0,0,0-.117-.022l-.087.049-.043-.191a.092.092,0,0,0-.125-.065l-.3.122.139-.605,1.131.261Z" transform="translate(-124.28 -34.652)" fill="#3a312a"/>
    </g>
  </g>
  <g id="Group_67478" data-name="Group 67478" transform="translate(7.935 1.795)">
    <g id="Group_67477" data-name="Group 67477">
      <path id="Path_239499" data-name="Path 239499" d="M146.56,43.957l-.575,2.5a.049.049,0,0,1-.059.037l.538.124a.049.049,0,0,0,.059-.037l.575-2.5Z" transform="translate(-145.925 -43.957)" fill="#ce4e61"/>
    </g>
  </g>
  <g id="Group_67480" data-name="Group 67480" transform="translate(8.854 1.288)">
    <g id="Group_67479" data-name="Group 67479">
      <path id="Path_239500" data-name="Path 239500" d="M161.519,35.823l-.538-.124a.035.035,0,0,1,.026.041l-.073.316a.035.035,0,0,1-.042.026l.538.124a.035.035,0,0,0,.042-.026l.073-.316A.035.035,0,0,0,161.519,35.823Z" transform="translate(-160.892 -35.699)" fill="#ce4e61"/>
    </g>
  </g>
</svg>
