<svg xmlns="http://www.w3.org/2000/svg" width="21.365" height="92.241" viewBox="0 0 21.365 92.241">
  <g id="Group_67153" data-name="Group 67153" transform="translate(-514.326 -736.477)">
    <g id="Group_67105" data-name="Group 67105" transform="translate(514.326 795.558)">
      <g id="Group_67086" data-name="Group 67086" transform="translate(11.227 10.459)">
        <path id="Path_238443" data-name="Path 238443" d="M961.265,3522.282a5.587,5.587,0,0,0,.914-1.481l.009-.043.154.072,0,.035a5.833,5.833,0,0,1-.7,1.253,3.709,3.709,0,0,1,1.624-.26h.024l.051.143h-.048a4.417,4.417,0,0,0-2.416.736,4.07,4.07,0,0,1,2.285.466l.029.014-.068.168-.034-.028a3.3,3.3,0,0,0-2.607-.224,4.187,4.187,0,0,0-.878.922l.136-.664.023-.024a5.285,5.285,0,0,1,1.5-1.085Z" transform="translate(-959.601 -3520.093)" fill="#211e21" fill-rule="evenodd"/>
        <path id="Path_238444" data-name="Path 238444" d="M1041.58,3497.806c-.556-.547.4-1.618.994-.853a.7.7,0,0,1-.264,1.032.758.758,0,0,1-.731-.18Zm.7-1.229c-.469-.458.329-1.345.835-.717a.593.593,0,0,1-.23.861c-.289.135-.6-.145-.6-.145Zm-1.247-1.086a.629.629,0,0,1,.8-.969.643.643,0,0,1-.012,1c-.342.3-.789-.031-.789-.031Z" transform="translate(-1038.756 -3494.395)" fill="#fff" fill-rule="evenodd"/>
      </g>
      <g id="Group_67087" data-name="Group 67087" transform="translate(16.363 20.41)">
        <path id="Path_238445" data-name="Path 238445" d="M1163.382,3889.055l.005.009a3.494,3.494,0,0,0,.816.465,2.674,2.674,0,0,0,.781.22l-.006.121a2.748,2.748,0,0,1-.821-.224,4.455,4.455,0,0,1-.635-.338,3.409,3.409,0,0,0,1.063,1.085l-.052.109a3.364,3.364,0,0,1-1.083-1.085,4.852,4.852,0,0,0,.231.773,2.024,2.024,0,0,0,.243.5l-.072.1s-.079-.058-.283-.547a6.663,6.663,0,0,1-.29-1.074Z" transform="translate(-1163.279 -3889.055)" fill="#211e21"/>
        <path id="Path_238446" data-name="Path 238446" d="M1178.119,3945.617c.918,1.016-.206,1.425-.481.249-.128-.554.07-.7.481-.249Z" transform="translate(-1177.238 -3943.931)" fill="#f7eae8" fill-rule="evenodd"/>
        <path id="Path_238447" data-name="Path 238447" d="M1197.916,3983.787c.066-.126.01-.154-.112-.117-.387.114.036.266.112.117Z" transform="translate(-1196.776 -3981.27)" fill="#211e21" fill-rule="evenodd"/>
        <path id="Path_238448" data-name="Path 238448" d="M1208.127,3937.224c1.405.411.614,1.411-.3.5-.428-.433-.33-.68.3-.5Z" transform="translate(-1206.452 -3935.949)" fill="#f7eae8" fill-rule="evenodd"/>
        <path id="Path_238449" data-name="Path 238449" d="M1247.5,3959.258c-.012-.156-.077-.147-.169-.043-.29.319.182.219.169.043Z" transform="translate(-1245.123 -3957.372)" fill="#211e21" fill-rule="evenodd"/>
        <path id="Path_238450" data-name="Path 238450" d="M1213.316,3908.868c1.285.027.842,1.061-.143.489-.464-.268-.436-.5.143-.489Z" transform="translate(-1211.6 -3908.369)" fill="#f7eae8" fill-rule="evenodd"/>
        <path id="Path_238451" data-name="Path 238451" d="M1252.809,3919.62c-.048-.128-.1-.106-.156,0-.172.34.205.145.156,0Z" transform="translate(-1250.355 -3918.763)" fill="#211e21" fill-rule="evenodd"/>
      </g>
      <g id="Group_67088" data-name="Group 67088" transform="translate(3.252 9.071)">
        <path id="Path_238452" data-name="Path 238452" d="M650.185,3442.918c-.84-4.368-5.5-3.685-6.9-3.134.6,1.045,4.311,4.689,6.9,3.139Z" transform="translate(-643.28 -3439.379)" fill="#bc7e44" fill-rule="evenodd"/>
        <path id="Path_238453" data-name="Path 238453" d="M721.246,3476.936s-3.577-2.171-5.57-3.047a13.936,13.936,0,0,1,5.654,2.6Z" transform="translate(-713.851 -3473.019)" fill="#211e21" fill-rule="evenodd"/>
      </g>
      <g id="Group_67089" data-name="Group 67089" transform="translate(10.499 6.473)">
        <path id="Path_238454" data-name="Path 238454" d="M951.752,3340.856c-.856-3.4,2.7-4.464,3.883-4.537-.083.947-.941,5.425-3.88,4.54Z" transform="translate(-951.094 -3336.319)" fill="#bc7e44" fill-rule="evenodd"/>
        <path id="Path_238455" data-name="Path 238455" d="M930.94,3367.5a44.68,44.68,0,0,1,3.475-4.6,17.719,17.719,0,0,0-3.691,4.1Z" transform="translate(-930.724 -3362.228)" fill="#211e21" fill-rule="evenodd"/>
      </g>
      <path id="Path_238456" data-name="Path 238456" d="M948.5,4003.716l-.3.077c.027.24.085.7.143,1.155a21.693,21.693,0,0,0-1.388,2.7l.169.083a22.224,22.224,0,0,1,1.272-2.371c.06.491.112.9.118.961l.233-.045c-.031-.2-.077-.656-.13-1.187a21.5,21.5,0,0,1,1.641,1.991l.154-.115a21.142,21.142,0,0,0-1.828-2.25C948.552,4004.377,948.523,4004.028,948.5,4003.716Z" transform="translate(-936.044 -3980.415)" fill="#211e21" fill-rule="evenodd"/>
      <g id="Group_67090" data-name="Group 67090" transform="translate(3.374 25.892)">
        <path id="Path_238457" data-name="Path 238457" d="M651.816,4106.561c.021,2.657-2.791,2.8-3.676,2.646.231-.683,1.974-3.252,3.674-2.649Z" transform="translate(-648.14 -4106.467)" fill="#bc7e44" fill-rule="evenodd"/>
        <path id="Path_238458" data-name="Path 238458" d="M679.966,4108.307s-1.84,1.691-2.9,2.439a8.325,8.325,0,0,0,3.006-2.184Z" transform="translate(-676.333 -4108.261)" fill="#211e21" fill-rule="evenodd"/>
      </g>
      <g id="Group_67091" data-name="Group 67091" transform="translate(7.235 26.75)">
        <path id="Path_238459" data-name="Path 238459" d="M802.96,4140.7c-.3,2.1,1.9,2.514,2.62,2.484-.109-.564-1.212-2.78-2.619-2.485Z" transform="translate(-802.89 -4140.667)" fill="#bc7e44" fill-rule="evenodd"/>
        <path id="Path_238460" data-name="Path 238460" d="M801.381,4140.514s1.273,1.533,2.033,2.237a6.635,6.635,0,0,1-2.141-2.046Z" transform="translate(-801.273 -4140.514)" fill="#211e21" fill-rule="evenodd"/>
      </g>
      <g id="Group_67092" data-name="Group 67092" transform="translate(15.428 23.264)">
        <path id="Path_238461" data-name="Path 238461" d="M1126.189,4003.013c1.367,1.618,3.145.246,3.6-.309-.494-.293-2.883-.941-3.6.307Z" transform="translate(-1126.189 -4002.273)" fill="#bc7e44" fill-rule="evenodd"/>
        <path id="Path_238462" data-name="Path 238462" d="M1126.245,4028.329s1.991.067,3.023-.034a6.636,6.636,0,0,1-2.952.241Z" transform="translate(-1126.244 -4027.639)" fill="#211e21" fill-rule="evenodd"/>
      </g>
      <path id="Path_238463" data-name="Path 238463" d="M514.331,3100.5c1.893.8,3.216,1.052,4.607.432-.628.718-1.661,2.063-1.343,2.219a22.9,22.9,0,0,1,2.411-2.449,20.784,20.784,0,0,1,1.927-1.676,25.94,25.94,0,0,1,2.89-1.5c-.088.307-.406,1.345-.522,1.675-.42,1.194-1.264,2.322-1.8,3.487-.6,1.314-2.629,7.027-1.845,6.773.755-.739.419-1.6,1.106-3.139a32.4,32.4,0,0,1,1.625-3.417c1.233-2.072,2.229-3.4,2.553-5.538.019-.021.034-.043.051-.064.048.3.1.6.178.892.425,1.708,2.848,6.408,5.107,7.218.6-.142-1.5-1.653-2.377-3.087a12.123,12.123,0,0,1-1.78-4.4c-.317-2.218-2.864-9.384-2.837-13.267.024-3.6,1.422-4.576.673-5.043-2.432,2.218-1.916,5.727-1.867,6.373.209,2.783,2.279,5.582,2.111,9.151a5.042,5.042,0,0,1-.749,1.3,17.105,17.105,0,0,1-3.018,2.081c-1.008.693-1.678,1.627-2.89,2.01a6.04,6.04,0,0,1-4.2-.363A1.616,1.616,0,0,0,514.331,3100.5Z" transform="translate(-514.326 -3079.614)" fill="#211e21"/>
      <g id="Group_67093" data-name="Group 67093" transform="translate(5.893 22.064)">
        <path id="Path_238464" data-name="Path 238464" d="M749.172,3958.858a1.3,1.3,0,0,0,2.478.362,1.52,1.52,0,0,0,1-2.529c.547-.944-.6-1.9-1.552-1.519-.552-1.15-2.879-.084-2.344,1.016-1.175.255-.825,2.924.417,2.67Z" transform="translate(-748.035 -3954.676)" fill="#f17265" fill-rule="evenodd"/>
        <path id="Path_238465" data-name="Path 238465" d="M838.287,4051.142s.188.063.175.223a.231.231,0,0,1-.285.2c-.287-.119-.133-.505.11-.427Z" transform="translate(-835.752 -4048.7)" fill="#211e21" fill-rule="evenodd"/>
        <path id="Path_238466" data-name="Path 238466" d="M776.6,3982.14a1.211,1.211,0,0,0,.147,2.1,1.917,1.917,0,0,1-.147-2.1Zm.731.716c.18-.547.762-.513,1.074-.018a.817.817,0,0,0-1.074.018Zm.05.659c.219.528.8.453,1.071-.069a.821.821,0,0,1-1.071.069Zm-.586.934a1.4,1.4,0,0,0,2.425-.21,2.222,2.222,0,0,1-2.425.21Zm2.047-1.6a.839.839,0,0,0-1.029-1.027,1.318,1.318,0,0,1,1.029,1.027Zm-.672,1.552a.844.844,0,0,0,.751-1.254,1.339,1.339,0,0,1-.751,1.254Zm-1.4-1.035a.839.839,0,0,0,1.123.926,1.332,1.332,0,0,1-1.123-.926Zm.954-1.43a.843.843,0,0,0-.944,1.114,1.346,1.346,0,0,1,.944-1.114Zm1.448,2.061a1.216,1.216,0,0,0-.292-2.087,1.931,1.931,0,0,1,.292,2.087Zm-.6-2.374a1.215,1.215,0,0,0-2.075.371,1.922,1.922,0,0,1,2.075-.371Z" transform="translate(-775.35 -3980.521)" fill="#f7eae8" fill-rule="evenodd"/>
      </g>
      <g id="Group_67095" data-name="Group 67095" transform="translate(1.637 18.252)">
        <path id="Path_238467" data-name="Path 238467" d="M640.441,3869.2a.582.582,0,0,0,.46-.036c.432.3.317.215.517.364l.135-.149a1.386,1.386,0,0,1-.5-.388.587.587,0,0,0-.346-.593.454.454,0,0,0-.361-.008l-.051-.038-.251.212.045.045-.009.028A.689.689,0,0,0,640.441,3869.2Z" transform="translate(-638.51 -3866.712)" fill="#211e21"/>
        <g id="Group_67094" data-name="Group 67094">
          <path id="Path_238468" data-name="Path 238468" d="M581.649,3805.208c-.208-.469-.743-1.327.029-1.648-.51-.185-.71-.117-.743.309-.247-.362-.627-.409-.628.183-.4-.341-.79-.074-.423.473-.672-.122-.579.364-.329.639-.433.078-.275.585-.17.773.343-.6.816-.234,1.461-.084.5.138.934-.172.8-.645Z" transform="translate(-579.268 -3803.463)" fill="#f7eae8" fill-rule="evenodd"/>
          <path id="Path_238469" data-name="Path 238469" d="M632.412,3858.966a.483.483,0,0,0,.291-.361,1.52,1.52,0,0,0-.154-.259c-.213-.3-.437-.444-.493-.342s.149.174.293.356a.534.534,0,0,1,.146.314s-.194-.159-.385-.3-.3-.159-.22-.015a2.872,2.872,0,0,0,.436.436s-.008,0-.191-.028-.475-.213-.5-.146.082.136.309.252a1.219,1.219,0,0,0,.473.088Z" transform="translate(-630.307 -3856.597)" fill="#f17265" fill-rule="evenodd"/>
        </g>
      </g>
      <g id="Group_67097" data-name="Group 67097" transform="translate(0.358 21.368)">
        <path id="Path_238470" data-name="Path 238470" d="M592.15,3930.581a.582.582,0,0,0,.086-.453c.4-.337.291-.249.486-.4l-.108-.169a1.382,1.382,0,0,1-.506.381.588.588,0,0,0-.663.179.455.455,0,0,0-.1.346l-.05.039.139.3.056-.032.025.016A.688.688,0,0,0,592.15,3930.581Z" transform="translate(-589.71 -3929.492)" fill="#211e21"/>
        <g id="Group_67096" data-name="Group 67096">
          <path id="Path_238471" data-name="Path 238471" d="M530.351,3927.515c-.507.077-1.476.369-1.583-.46-.312.443-.3.654.1.8-.414.143-.559.5.012.655-.433.3-.279.743.346.533-.294.616.2.654.53.485-.039.438.492.419.7.367-.491-.489-.011-.848.3-1.431.266-.449.079-.946-.411-.945Z" transform="translate(-528.506 -3927.055)" fill="#f7eae8" fill-rule="evenodd"/>
          <path id="Path_238472" data-name="Path 238472" d="M582.44,3947.883a.482.482,0,0,0-.272-.375,1.53,1.53,0,0,0-.29.081c-.342.128-.543.305-.46.386s.207-.1.42-.189a.531.531,0,0,1,.341-.059s-.2.146-.386.294-.233.251-.073.209a2.863,2.863,0,0,0,.535-.306s0,.008-.076.177-.33.4-.273.448.153-.043.324-.232a1.221,1.221,0,0,0,.209-.433Z" transform="translate(-580.065 -3946.992)" fill="#f17265" fill-rule="evenodd"/>
        </g>
      </g>
      <g id="Group_67099" data-name="Group 67099" transform="translate(3.364 22.254)">
        <path id="Path_238473" data-name="Path 238473" d="M681.117,3962.815a.391.391,0,0,0-.233-.2c-.06-.346-.047-.252-.07-.416l-.134.005a.932.932,0,0,1,.051.421.392.392,0,0,0-.119.444.305.305,0,0,0,.166.175l.006.042.219.02v-.043l.018-.009A.46.46,0,0,0,681.117,3962.815Z" transform="translate(-679.757 -3962.197)" fill="#211e21"/>
        <g id="Group_67098" data-name="Group 67098" transform="translate(0 0.565)">
          <path id="Path_238474" data-name="Path 238474" d="M648.52,3984.907c-.125.319-.281.977-.8.761.152.329.278.392.5.208-.056.287.1.49.383.212.026.35.336.41.424-.021.258.376.445.1.459-.144.241.169.407-.144.447-.282-.447.12-.495-.278-.727-.655-.171-.3-.521-.363-.685-.079Z" transform="translate(-647.723 -3984.719)" fill="#f7eae8" fill-rule="evenodd"/>
          <path id="Path_238475" data-name="Path 238475" d="M681.714,3984.631a.322.322,0,0,0-.308.032.994.994,0,0,0-.051.195c-.04.241-.005.417.069.4s.012-.153.032-.306a.359.359,0,0,1,.08-.217s.016.167.041.322.067.219.1.112a1.915,1.915,0,0,0,0-.413s0,0,.077.1.122.326.168.309.026-.1-.026-.266a.816.816,0,0,0-.18-.266Z" transform="translate(-680.491 -3984.606)" fill="#f17265" fill-rule="evenodd"/>
        </g>
      </g>
      <g id="Group_67100" data-name="Group 67100" transform="translate(3.762 19.495)">
        <path id="Path_238476" data-name="Path 238476" d="M665.979,3854.621c1.078.235.706,1.168.315,1.052-.077.53-.844.309-.97-.423.06.834-.787,1.147-.861.627-.568.157-.6-.634.021-.981-.656.179-1.307-.444-.7-.744-.319-.368.454-.59.978-.209-.578-.5-.345-1.429.237-.965.179-.518.892.076.543.871.438-.937,1.378-.423,1.127-.043.613.187.03.966-.69.814Z" transform="translate(-663.542 -3852.785)" fill="#c16ba8" fill-rule="evenodd"/>
        <path id="Path_238477" data-name="Path 238477" d="M702.059,3891.9c.464.1.3.5.136.455-.034.23-.363.133-.419-.182.027.359-.34.5-.371.272-.246.064-.261-.276.01-.424-.286.075-.566-.194-.3-.321-.138-.162.2-.259.425-.092-.251-.218-.149-.616.1-.417.078-.226.384.032.235.375.189-.405.594-.183.487-.019.263.083.012.421-.3.353Z" transform="translate(-700.061 -3890.144)" fill="#f0d0e4" fill-rule="evenodd"/>
        <path id="Path_238478" data-name="Path 238478" d="M720.6,3913.771c-.363.075-.348-.448-.045-.4a.2.2,0,0,1,.045.4Z" transform="translate(-718.891 -3911.844)" fill="#211e21" fill-rule="evenodd"/>
      </g>
      <g id="Group_67101" data-name="Group 67101" transform="translate(10.557 25.691)">
        <path id="Path_238479" data-name="Path 238479" d="M1058.986,4165.727a.463.463,0,0,0-.7-.338.5.5,0,0,0-.23.631A.5.5,0,0,0,1058.986,4165.727Z" transform="translate(-1054.867 -4163.646)" fill="#f7eae8"/>
        <path id="Path_238480" data-name="Path 238480" d="M1018.208,4210.586c-.63.058-.586,1.214.177,1.049a.568.568,0,0,0,.365-.777C1018.615,4210.573,1018.208,4210.586,1018.208,4210.586Z" transform="translate(-1015.633 -4207.76)" fill="#f7eae8"/>
        <path id="Path_238481" data-name="Path 238481" d="M1006.317,4152.757c-.026-.428-.484-.471-.732-.353a.525.525,0,0,0-.239.654A.516.516,0,0,0,1006.317,4152.757Z" transform="translate(-1003.489 -4150.99)" fill="#f7eae8"/>
        <path id="Path_238482" data-name="Path 238482" d="M1058.647,4107.868a.569.569,0,0,0,.364-.777c-.133-.285-.541-.272-.541-.272C1057.841,4106.876,1057.884,4108.033,1058.647,4107.868Z" transform="translate(-1054.881 -4106.609)" fill="#f7eae8"/>
        <path id="Path_238483" data-name="Path 238483" d="M994.051,4098.9a.619.619,0,0,0-.895-.325.586.586,0,0,0-.167.868C993.252,4099.872,994.43,4099.716,994.051,4098.9Z" transform="translate(-991.359 -4098.498)" fill="#f7eae8"/>
        <path id="Path_238484" data-name="Path 238484" d="M933.618,4136.365a.565.565,0,0,0,.359-.777c-.133-.285-.536-.272-.536-.272C932.806,4135.374,932.856,4136.53,933.618,4136.365Z" transform="translate(-933.002 -4134.388)" fill="#f7eae8"/>
        <path id="Path_238485" data-name="Path 238485" d="M966.342,4183.958a.479.479,0,0,0,.473-.578c-.056-.337-.473-.367-.473-.367A.473.473,0,0,0,966.342,4183.958Z" transform="translate(-965.052 -4180.882)" fill="#f7eae8"/>
      </g>
      <g id="Group_67102" data-name="Group 67102" transform="translate(2.265 12.005)">
        <path id="Path_238486" data-name="Path 238486" d="M605.827,3557.018c-.2-.556-.454-.671-.131-1.295a1.2,1.2,0,0,1,.459,1.476,7.991,7.991,0,0,1,.851.552,1.062,1.062,0,0,1,.051-1.291,1.048,1.048,0,0,1,.229,1.5,10.218,10.218,0,0,1,.939.842c-.042-.544-.105-1.021.359-1.377.566.68.386,1.477-.129,1.623.288.321.625.728.881,1.083a1.264,1.264,0,0,1,.6-1.249,1.138,1.138,0,0,1-.289,1.711q.277.429.521.885a2.225,2.225,0,0,1,.909-1.312c.376,1-.057,1.542-.7,1.713.146.306.362.787.487,1.105.095.24-.174.322-.246.095-.125-.325-.26-.641-.409-.951a1.33,1.33,0,0,1-1.682-.585c.711-.235.9-.277,1.458.123-.18-.346-.367-.678-.572-1a1.478,1.478,0,0,1-1.618-.677c.551-.313.854-.141,1.3.2a11.757,11.757,0,0,0-.744-.959.939.939,0,0,1-1.383-.188.774.774,0,0,1,1.1-.123,10.179,10.179,0,0,0-.881-.817.757.757,0,1,1-.285-.224,9.1,9.1,0,0,0-.8-.535c-.385.485-.915.385-1.437.081a1,1,0,0,1,1.093-.273c-.07-.039-.2-.109-.355-.183-1.171.167-1.254-.762-1.254-.762.8-.229.969.087,1.372.648.127.069.243.125.306.163Z" transform="translate(-604.149 -3555.723)" fill="#f7eae8" fill-rule="evenodd"/>
      </g>
      <g id="Group_67103" data-name="Group 67103" transform="translate(4.777 14.14)">
        <path id="Path_238487" data-name="Path 238487" d="M711.815,3649.346c.948,3.9-6.173,3.146-4.706-.365-3.7,2.03-4.629-5.024-1.112-4.567-3.168-2.807,3.644-6.14,4.025-2.257,1.562-4.061,6.893,1.068,3.772,2.841,3.594.409,1.08,6.641-1.979,4.348Z" transform="translate(-703.792 -3640.391)" fill="#d82a52" fill-rule="evenodd"/>
        <path id="Path_238488" data-name="Path 238488" d="M912.113,3825.543s-.156.641-.659.729a.928.928,0,0,1-1.055-.906c.089-1.261,1.907-.831,1.714.177Z" transform="translate(-905.188 -3819.944)" fill="#211e21" fill-rule="evenodd"/>
        <path id="Path_238489" data-name="Path 238489" d="M896.471,3904.9s-.011.577.036,1.4a2.542,2.542,0,0,0,.664,1.468,5.71,5.71,0,0,0-.7-2.864Zm-.364-.117a4.461,4.461,0,0,0-.741.979,3.7,3.7,0,0,0-.262,1.449,3.416,3.416,0,0,0,1-2.427Z" transform="translate(-890.279 -3898.115)" fill="#f7eae8" fill-rule="evenodd"/>
        <path id="Path_238490" data-name="Path 238490" d="M796.578,3850.182s-.531.211-1.275.569a2.53,2.53,0,0,0-1.081,1.177,5.8,5.8,0,0,0,2.356-1.747Zm-.032-.391a4.476,4.476,0,0,0-1.2-.3,3.727,3.727,0,0,0-1.429.322,3.427,3.427,0,0,0,2.624-.02Z" transform="translate(-791.649 -3844.214)" fill="#f7eae8" fill-rule="evenodd"/>
        <path id="Path_238491" data-name="Path 238491" d="M815.391,3720.064s-.393-.417-1-.966a2.619,2.619,0,0,0-1.5-.576,5.719,5.719,0,0,0,2.5,1.542Zm.348-.164a4.12,4.12,0,0,0-.171-1.231,3.657,3.657,0,0,0-.821-1.211,3.489,3.489,0,0,0,.992,2.442Z" transform="translate(-810.141 -3715.515)" fill="#f7eae8" fill-rule="evenodd"/>
        <path id="Path_238492" data-name="Path 238492" d="M974.061,3712.209s.378-.435.866-1.1a2.552,2.552,0,0,0,.431-1.541,5.677,5.677,0,0,0-1.3,2.637Zm.2.324a4.235,4.235,0,0,0,1.2-.285,3.611,3.611,0,0,0,1.124-.939,3.449,3.449,0,0,0-2.324,1.224Z" transform="translate(-967.246 -3707.827)" fill="#f7eae8" fill-rule="evenodd"/>
        <path id="Path_238493" data-name="Path 238493" d="M990.179,3868.555s.543.191,1.332.415a2.554,2.554,0,0,0,1.6-.16,5.7,5.7,0,0,0-2.928-.255Zm-.228.314a4.534,4.534,0,0,0,.7,1.01,3.661,3.661,0,0,0,1.279.713,3.39,3.39,0,0,0-1.975-1.723Z" transform="translate(-982.736 -3862.698)" fill="#f7eae8" fill-rule="evenodd"/>
      </g>
      <g id="Group_67104" data-name="Group 67104" transform="translate(3.237 27.462)">
        <path id="Path_238494" data-name="Path 238494" d="M644.344,4172.035c-1.12.389-1.581,1.806.025,1.59.753,1.883,1.8.092,1.785-.862.144.479.362,1.118,1.012,1.163a.837.837,0,0,0,.922-1.015c.835-.213.974-.806.782-1.229s-1.053-.5-1.839-.446c.748-.281,1.289-.644,1.1-1.4a.743.743,0,0,0-1.115-.242.77.77,0,0,0-.623-.841c-.878-.034-1,.911-.926,1.62-.742-1.655-2.492-1.12-1.822-.016-1.227.025-1.522,1.464.694,1.676Z" transform="translate(-642.701 -4168.754)" fill="#f17265"/>
        <path id="Path_238495" data-name="Path 238495" d="M760.7,4218.763s1.015-.381.983-.516-.829.239-.829.239.591-.811.47-.87-.647.726-.647.726.174-.956.074-1-.323.966-.323.966-.032-.711-.159-.724-.028.938-.028.938Z" transform="translate(-757.244 -4216.113)" fill="#ffe7b0" fill-rule="evenodd"/>
        <path id="Path_238496" data-name="Path 238496" d="M703.8,4286.635s-1.245.677-1.21.784,1.055-.436,1.055-.436-.841.951-.711,1.044.842-.872.842-.872-.442,1.093-.3,1.138.519-1.032.519-1.032-.08.942.054.945.188-1.261.188-1.261Z" transform="translate(-701.077 -4283.663)" fill="#ffe7b0" fill-rule="evenodd"/>
        <path id="Path_238497" data-name="Path 238497" d="M686.017,4231.305s-1.3.194-1.4.014.964-.121.964-.121-1.2-.265-1.154-.436,1.186.207,1.186.207-1.08-.534-1-.687,1.162.47,1.162.47-.615-.736-.462-.836.842.974.842.974Z" transform="translate(-683.376 -4228.367)" fill="#ffe7b0" fill-rule="evenodd"/>
        <path id="Path_238498" data-name="Path 238498" d="M775.057,4281.435s.541.941.673.936-.3-.7-.3-.7.628.68.792.587-.717-.827-.717-.827.956.387,1,.287c.066-.167-.936-.525-.936-.525s.615-.026.659-.135c.036-.142-.986-.149-.986-.149Z" transform="translate(-771.72 -4278.081)" fill="#ffe7b0" fill-rule="evenodd"/>
        <path id="Path_238499" data-name="Path 238499" d="M742.756,4260.9a.59.59,0,0,0,.811.414.561.561,0,0,0,.255-.807c-.2-.43-1.338-.427-1.066.394Z" transform="translate(-740.193 -4257.915)" fill="#211e21" fill-rule="evenodd"/>
      </g>
    </g>
    <g id="Group_67106" data-name="Group 67106" transform="translate(520.019 758.473)">
      <path id="Path_238500" data-name="Path 238500" d="M744.25,1610.759c-.148-1.331-2.643-2.332-4.125-1.762a3.828,3.828,0,0,0,3.783,2.188,2.752,2.752,0,0,0,.332-.108Z" transform="translate(-740.125 -1608.833)" fill="#d82a52" fill-rule="evenodd"/>
      <path id="Path_238501" data-name="Path 238501" d="M786.252,1630.234a7.262,7.262,0,0,0-1.875-.554s.833.283,1.858.731a3.874,3.874,0,0,1,1.9,2.022c.368-.413-.605-1.488-.82-1.647a4.725,4.725,0,0,0-.973-.883,7.207,7.207,0,0,0-1.743-.989s.743.459,1.625,1.117l.046.035c-.119-.08-.257-.167-.422-.262a7.3,7.3,0,0,0-1.863-.765s.8.364,1.771.909C785.951,1630.057,786.114,1630.152,786.252,1630.234Zm.659.331-.1-.054c-.031-.034-.069-.072-.117-.116Q786.82,1630.49,786.911,1630.565Z" transform="translate(-782.879 -1628.408)" fill="#211e21" fill-rule="evenodd"/>
    </g>
    <g id="Group_67116" data-name="Group 67116" transform="translate(514.606 736.477)">
      <path id="Path_238502" data-name="Path 238502" d="M940.252,1347.111a7.562,7.562,0,0,1,.124-3.942c.68-1.689,3.059-1.579,3.059-1.579a3.4,3.4,0,0,1-.563,3.184,11.233,11.233,0,0,1-2.621,2.338Z" transform="translate(-929.584 -1326.33)" fill="#bc7e44" fill-rule="evenodd"/>
      <path id="Path_238503" data-name="Path 238503" d="M979.176,933.693a5.685,5.685,0,0,1,1.661-2.456c1.11-.8,2.579.223,2.579.223a2.555,2.555,0,0,1-1.635,1.8,8.446,8.446,0,0,1-2.6.435Z" transform="translate(-967.735 -926.027)" fill="#bc7e44" fill-rule="evenodd"/>
      <path id="Path_238504" data-name="Path 238504" d="M822.223,821.987c.017-.058.3-.75.321-.811a14.181,14.181,0,0,0,2.211-3.113c.1-.187-.041-.253-.139-.066a9.9,9.9,0,0,1-1.87,2.529,17.747,17.747,0,0,1,1.69-3.509c.118-.192-.023-.267-.167-.1a21.641,21.641,0,0,0-1.677,3.265,8.509,8.509,0,0,1,.465-2.179c.066-.191-.072-.247-.147-.054a11.014,11.014,0,0,0-.639,2.847,11.108,11.108,0,0,1-.562-2.208,7.6,7.6,0,0,1,2.412-3.768l-.169-.3a9.9,9.9,0,0,0-2.369,2.148c0-.216.01-.436.024-.664a44.141,44.141,0,0,1,1.667-7.731l.049-.043a10.676,10.676,0,0,0,2.655-1.092c.137-.08.075-.177-.062-.1a7.436,7.436,0,0,1-2.2.858,13.351,13.351,0,0,1,2.482-1.553c.152-.075.092-.179-.066-.132a16.3,16.3,0,0,0-2.376,1.4,6.4,6.4,0,0,1,1.169-1.2c.119-.1.054-.186-.072-.093a7.9,7.9,0,0,0-1.422,1.4,10.907,10.907,0,0,0,.6-2.607c-.235-.363-1.288,2.881-1.409,2.758a10.258,10.258,0,0,0-1.511-5.051s-.961-.944-.836-.365c0,0,3.081,3.464,1.18,9.092a17.1,17.1,0,0,0-.844,8.655,3.033,3.033,0,0,0-1.461-.963l-.085.342a7.412,7.412,0,0,1,1.849,1.722,11.861,11.861,0,0,1,.908,2.991c.624,4.879-2.006,9.9-1.63,10.4.6.791,2.243-3.719,2.575-7.693C823.042,823.678,822.466,822.554,822.223,821.987Z" transform="translate(-811.659 -800.608)" fill="#211e21"/>
      <g id="Group_67107" data-name="Group 67107" transform="translate(6.033 1.996)">
        <path id="Path_238505" data-name="Path 238505" d="M795.541,846.489a6.034,6.034,0,0,1-.731-1.733l0-.047-.176.052,0,.037a6.288,6.288,0,0,0,.54,1.453,4.012,4.012,0,0,0-1.691-.546l-.025,0-.078.144.051.009a4.773,4.773,0,0,1,2.458,1.185,4.406,4.406,0,0,0-2.516.12l-.033.011.045.191.041-.024a3.57,3.57,0,0,1,2.819.192,4.532,4.532,0,0,1,.785,1.13l-.035-.731-.021-.03a5.712,5.712,0,0,0-1.428-1.407Z" transform="translate(-792.613 -843.976)" fill="#211e21" fill-rule="evenodd"/>
        <path id="Path_238506" data-name="Path 238506" d="M766.2,819.273a.821.821,0,0,1-.81.072.762.762,0,0,1-.111-1.146c.762-.719,1.6.583.921,1.075Zm-.544-1.427s-.384.247-.669.055a.639.639,0,0,1-.1-.957c.644-.588,1.349.491.773.9Zm1.511-.954s-.532.278-.848-.1a.7.7,0,0,1,.153-1.069.679.679,0,0,1,.695,1.166Z" transform="translate(-764.709 -815.647)" fill="#fff" fill-rule="evenodd"/>
      </g>
      <g id="Group_67108" data-name="Group 67108" transform="translate(8.818 0)">
        <path id="Path_238507" data-name="Path 238507" d="M890.653,755.735a3.557,3.557,0,0,0-.4-1.035l-.018-.021.1-.05.016.015a3.72,3.72,0,0,1,.367.838,2.358,2.358,0,0,1,.493-.925l.009-.013.092.029-.018.025a2.814,2.814,0,0,0-.557,1.511,2.6,2.6,0,0,1,1.116-.982l.019-.009.059.1-.027.007a2.1,2.1,0,0,0-1.117,1.238,2.67,2.67,0,0,0,.13.8l-.285-.324,0-.021a3.369,3.369,0,0,1,.028-1.182Z" transform="translate(-889.854 -754.089)" fill="#211e21" fill-rule="evenodd"/>
        <path id="Path_238508" data-name="Path 238508" d="M877.03,738.005c-.492.072-.668-.826-.05-.833a.449.449,0,0,1,.423.532c-.057.245-.373.3-.373.3Zm-.355-.829c-.413.062-.557-.685-.043-.7a.377.377,0,0,1,.349.448c-.042.2-.306.251-.306.251Zm-1.032.215a.4.4,0,0,1-.184-.78.41.41,0,0,1,.5.391c.02.289-.32.389-.32.389Z" transform="translate(-875.164 -736.477)" fill="#fff" fill-rule="evenodd"/>
      </g>
      <g id="Group_67109" data-name="Group 67109" transform="translate(14.637 7.481)">
        <path id="Path_238509" data-name="Path 238509" d="M1107.2,1061.9a5.586,5.586,0,0,0,.611-1.63v-.044l.165.041,0,.035a5.844,5.844,0,0,1-.444,1.364,3.707,3.707,0,0,1,1.543-.569l.023-.006.078.131-.047.01a4.418,4.418,0,0,0-2.229,1.189,4.07,4.07,0,0,1,2.332.015l.031.008-.034.178-.038-.021a3.3,3.3,0,0,0-2.6.284,4.186,4.186,0,0,0-.684,1.074l.005-.677.018-.028a5.284,5.284,0,0,1,1.267-1.355Z" transform="translate(-1105.905 -1059.539)" fill="#211e21" fill-rule="evenodd"/>
        <path id="Path_238510" data-name="Path 238510" d="M1161.012,1036.515c-.651-.429.079-1.665.811-1.029a.7.7,0,0,1-.059,1.064.758.758,0,0,1-.752-.035Zm.45-1.341c-.549-.359.063-1.383.681-.864a.592.592,0,0,1-.059.89c-.257.188-.621-.025-.621-.025Zm-1.434-.825a.629.629,0,0,1,.6-1.1.643.643,0,0,1,.181.983c-.278.359-.78.122-.78.122Z" transform="translate(-1158.349 -1033.184)" fill="#fff" fill-rule="evenodd"/>
      </g>
      <g id="Group_67110" data-name="Group 67110" transform="translate(10.534 19.009)">
        <path id="Path_238511" data-name="Path 238511" d="M944.594,1507.685a3.69,3.69,0,0,0,.87-.746l.014-.025.082.076-.009.021a3.846,3.846,0,0,1-.69.646,2.443,2.443,0,0,1,1.071.161l.015,0,0,.1-.03-.009a2.912,2.912,0,0,0-1.663-.022,2.682,2.682,0,0,1,1.341.75l.015.014-.076.092-.016-.024a2.176,2.176,0,0,0-1.591-.662,2.751,2.751,0,0,0-.735.4l.218-.389.02-.01a3.473,3.473,0,0,1,1.161-.379Z" transform="translate(-943.195 -1506.496)" fill="#211e21" fill-rule="evenodd"/>
        <path id="Path_238512" data-name="Path 238512" d="M1016.12,1492.556c-.24-.454.574-.935.794-.336a.464.464,0,0,1-.372.595c-.258.029-.422-.259-.422-.259Zm.685-.63c-.2-.381.476-.778.667-.282a.389.389,0,0,1-.317.494c-.208.027-.35-.212-.35-.212Zm-.565-.931a.414.414,0,0,1,.7-.447.424.424,0,0,1-.208.624c-.274.119-.489-.177-.489-.177Z" transform="translate(-1014.239 -1490.368)" fill="#fff" fill-rule="evenodd"/>
      </g>
      <g id="Group_67111" data-name="Group 67111" transform="translate(9.936 7.773)">
        <path id="Path_238513" data-name="Path 238513" d="M922.112,1047.033c-.831-1.207-2.671-1.292-1.887.552-2,1.515.478,2.172,1.613,1.845-.524.329-1.214.8-1.054,1.587a1.035,1.035,0,0,0,1.512.767c.528.925,1.28.9,1.721.529.454-.388.246-1.418-.072-2.338.579.8,1.189,1.325,2.027.858a.919.919,0,0,0-.077-1.408.952.952,0,0,0,.8-1.018c-.247-1.057-1.413-.9-2.233-.573,1.729-1.427.519-3.337-.579-2.177-.432-1.454-2.243-1.335-1.769,1.376Z" transform="translate(-919.471 -1044.732)" fill="#f17265"/>
        <path id="Path_238514" data-name="Path 238514" d="M1077.6,1177.516s.788,1.085.937,1-.556-.91-.556-.91,1.159.439,1.19.276-1.078-.533-1.078-.533,1.2-.106,1.219-.24-1.257-.068-1.257-.068.837-.271.811-.427-1.127.274-1.127.274Z" transform="translate(-1073.617 -1173.259)" fill="#ffe7b0" fill-rule="evenodd"/>
        <path id="Path_238515" data-name="Path 238515" d="M972.321,1136.988s-1.215-1.261-1.331-1.185.865,1.115.865,1.115-1.409-.69-1.477-.506,1.315.719,1.315.719-1.447-.169-1.454.017,1.4.281,1.4.281-1.149.213-1.108.374,1.565-.189,1.565-.189Z" transform="translate(-968.959 -1133.504)" fill="#ffe7b0" fill-rule="evenodd"/>
        <path id="Path_238516" data-name="Path 238516" d="M1033.76,1098.711s-.657-1.487-.475-1.662.46,1.109.46,1.109-.078-1.518.142-1.518.142,1.481.142,1.481.283-1.462.49-1.419-.179,1.539-.179,1.539.676-.975.845-.825-.885,1.322-.885,1.322Z" transform="translate(-1030.384 -1095.332)" fill="#ffe7b0" fill-rule="evenodd"/>
        <path id="Path_238517" data-name="Path 238517" d="M1008.124,1217.034s-.944.953-.895,1.108.737-.581.737-.581-.605.971-.44,1.136.751-1.126.751-1.126-.148,1.266-.014,1.288c.22.024.319-1.288.319-1.288s.233.724.377.742c.181,0-.146-1.224-.146-1.224Z" transform="translate(-1005.015 -1212.69)" fill="#ffe7b0" fill-rule="evenodd"/>
        <path id="Path_238518" data-name="Path 238518" d="M1035.326,1169.934a.729.729,0,0,0-.227,1.1.694.694,0,0,0,1.046.039c.445-.382.07-1.734-.819-1.141Z" transform="translate(-1032.03 -1166.632)" fill="#211e21" fill-rule="evenodd"/>
      </g>
      <g id="Group_67112" data-name="Group 67112" transform="translate(0 5.594)">
        <path id="Path_238519" data-name="Path 238519" d="M533.314,967.467c.755,3.942-6.321,2.839-4.682-.6-3.8,1.846-4.377-5.245-.886-4.616-3.026-2.96,3.942-5.954,4.131-2.057,1.76-3.979,6.833,1.406,3.628,3.023,3.569.586.752,6.686-2.191,4.246Z" transform="translate(-525.428 -958.341)" fill="#d82a52" fill-rule="evenodd"/>
        <path id="Path_238520" data-name="Path 238520" d="M735.23,1146.563s-.188.633-.694.7a.929.929,0,0,1-1.009-.957c.151-1.255,1.945-.736,1.7.261Z" transform="translate(-728.276 -1140.842)" fill="#211e21" fill-rule="evenodd"/>
        <path id="Path_238521" data-name="Path 238521" d="M712.689,1225.5s-.04.576-.033,1.4a2.542,2.542,0,0,0,.591,1.5,5.71,5.71,0,0,0-.557-2.894Zm-.358-.135a4.466,4.466,0,0,0-.789.941,3.7,3.7,0,0,0-.333,1.434,3.416,3.416,0,0,0,1.122-2.375Z" transform="translate(-706.525 -1218.635)" fill="#f7eae8" fill-rule="evenodd"/>
        <path id="Path_238522" data-name="Path 238522" d="M619.592,1166.471s-.54.185-1.3.506a2.529,2.529,0,0,0-1.138,1.123,5.8,5.8,0,0,0,2.439-1.629Zm-.012-.392a4.467,4.467,0,0,0-1.179-.36,3.726,3.726,0,0,0-1.443.251,3.428,3.428,0,0,0,2.622.109Z" transform="translate(-614.649 -1160.479)" fill="#f7eae8" fill-rule="evenodd"/>
        <path id="Path_238523" data-name="Path 238523" d="M643.376,1038.526s-.372-.436-.951-1.014a2.618,2.618,0,0,0-1.469-.649,5.72,5.72,0,0,0,2.42,1.663Zm.356-.147a4.119,4.119,0,0,0-.111-1.238,3.655,3.655,0,0,0-.761-1.25,3.489,3.489,0,0,0,.871,2.487Z" transform="translate(-638.043 -1033.937)" fill="#f7eae8" fill-rule="evenodd"/>
        <path id="Path_238524" data-name="Path 238524" d="M799.249,1037.419s.4-.415.919-1.053a2.552,2.552,0,0,0,.506-1.518,5.677,5.677,0,0,0-1.425,2.57Zm.186.334a4.237,4.237,0,0,0,1.213-.225,3.612,3.612,0,0,0,1.169-.883,3.45,3.45,0,0,0-2.381,1.108Z" transform="translate(-792.345 -1032.92)" fill="#f7eae8" fill-rule="evenodd"/>
        <path id="Path_238525" data-name="Path 238525" d="M811.873,1193.858s.533.218,1.31.48a2.553,2.553,0,0,0,1.6-.082,5.7,5.7,0,0,0-2.912-.4Zm-.243.3a4.535,4.535,0,0,0,.646,1.044,3.664,3.664,0,0,0,1.243.775,3.39,3.39,0,0,0-1.888-1.819Z" transform="translate(-804.414 -1187.853)" fill="#f7eae8" fill-rule="evenodd"/>
      </g>
      <g id="Group_67113" data-name="Group 67113" transform="translate(10.451 1.417)">
        <path id="Path_238526" data-name="Path 238526" d="M943.379,796.013a5.224,5.224,0,0,1,.47-2.36,2.093,2.093,0,0,1,1.817-.974,2.429,2.429,0,0,1-.63,1.91,8.283,8.283,0,0,1-1.657,1.424Z" transform="translate(-943.288 -792.679)" fill="#bc7e44" fill-rule="evenodd"/>
        <path id="Path_238527" data-name="Path 238527" d="M939.919,818.648l.038-.081a9.284,9.284,0,0,1,.719-2.016c.06-.116.129-.085.074.031a6.428,6.428,0,0,0-.474,1.308,17.157,17.157,0,0,1,1.241-1.97c.1-.1.164-.056.08.059a14,14,0,0,0-1.273,2.115,7.746,7.746,0,0,0,1.27-1.531c.072-.113.14-.075.068.038a11.154,11.154,0,0,1-1.514,1.884c-.033.073-.06.14-.093.214Z" transform="translate(-939.919 -815.28)" fill="#211e21"/>
      </g>
      <g id="Group_67114" data-name="Group 67114" transform="translate(2.759 15.034)">
        <path id="Path_238528" data-name="Path 238528" d="M639.526,1337.041c.366-1.74-.384-3.838-2.182-4.341a3.4,3.4,0,0,0,.661,2.554,3.369,3.369,0,0,0-3.17.293c.84,1.217,1.567,1.255,2.938,1.541a2.55,2.55,0,0,0-1.755,2.532c1.688-.354,3-.783,3.508-2.579Z" transform="translate(-634.835 -1332.7)" fill="#c16ba8" fill-rule="evenodd"/>
        <path id="Path_238529" data-name="Path 238529" d="M717.768,1368.872l.006-.023a7.06,7.06,0,0,0-.594-1.973c-.353-.533-.538-.73-.627-.644s.2.321.447.713a6.1,6.1,0,0,1,.487,1.221,9.554,9.554,0,0,1-.953-1.386c-.248-.423-.255-.738-.4-.795s0,.5.237.885a10.634,10.634,0,0,0,1.01,1.5,4.631,4.631,0,0,1-.692-.614c-.227-.273-.312-.537-.415-.543s.022.263.141.433a3.829,3.829,0,0,0,.838.888,5.428,5.428,0,0,0-.967-.435c-.413-.126-.718-.156-.754-.054s.563.136.967.323a6.576,6.576,0,0,1,.659.332,10.807,10.807,0,0,0-2.112-.216c-.3.165,1.966.391,2.241.437a4.247,4.247,0,0,1-1.376.13c-.471-.094-.6-.083-.651-.025s.243.189.773.244a5.009,5.009,0,0,0,1.324-.145,9.69,9.69,0,0,0-1.4.732c-.342.271-.384.42-.334.5s.347-.318.628-.487.965-.488.965-.488a11.877,11.877,0,0,1-1.484,1.326c-.448.306-.66.318-.643.458s.577-.141.945-.421a12.759,12.759,0,0,0,1.276-1.216,2.088,2.088,0,0,1-.871,1.2c-.1.075-.169.144-.171.208s.114.049.259-.038a3.727,3.727,0,0,0,1.174-1.59Z" transform="translate(-713 -1365.142)" fill="#f0d0e4" fill-rule="evenodd"/>
        <path id="Path_238530" data-name="Path 238530" d="M813.916,1458.214a.955.955,0,0,0,.415-1.037c-.071-.341-.222-.488-.259-.442a1.549,1.549,0,0,0,0,.384c-.024.675-.2,1-.151,1.1Z" transform="translate(-809.391 -1453.6)" fill="#211e21" fill-rule="evenodd"/>
      </g>
      <g id="Group_67115" data-name="Group 67115" transform="translate(7.454 15.971)">
        <path id="Path_238531" data-name="Path 238531" d="M822.624,1370.762a1.086,1.086,0,0,0,.021-.622c-.122-.383-1-.376-1.009.071,0,.254.3.569.411.747,0,0-.669-.469-.9-.212a.708.708,0,0,0,.177.952c.28.173.842-.135.842-.135s-.508.426-.371.718c.164.353.9.414.984.066a1.639,1.639,0,0,0-.106-.733c.435.736.769.906,1.038.471.291-.5.074-.661-.769-.831.6-.008.968-.362.646-.781s-.5-.253-.969.288Z" transform="translate(-821.034 -1369.863)" fill="#f17265" fill-rule="evenodd"/>
        <path id="Path_238532" data-name="Path 238532" d="M870.74,1413.1a.087.087,0,0,1-.014-.085.083.083,0,0,1,.122-.021c.081.076-.05.177-.108.106Zm-.17-.273a.073.073,0,0,0,.031.107c.035.023.081-.007.093-.043.022-.053-.072-.156-.124-.064Zm-.132.359c-.043.034-.013.086.018.1a.065.065,0,1,0-.018-.1Zm.1-.061s-.038-.048-.014-.088a.082.082,0,0,1,.124-.023c.086.078-.05.183-.11.111Zm-.145-.1s-.024-.042,0-.07a.054.054,0,1,1,0,.07Zm.257.158a.052.052,0,0,0,.015.086.054.054,0,0,0,.073-.019c.032-.049-.037-.108-.089-.067Z" transform="translate(-869.141 -1411.71)" fill="#211e21" fill-rule="evenodd"/>
        <path id="Path_238533" data-name="Path 238533" d="M851.457,1379.988a3.372,3.372,0,0,1-.368-.524c-.117-.244.049-.459.193-.191a5.268,5.268,0,0,1,.233.559c.045.136.005.223-.058.156Z" transform="translate(-850.293 -1378.915)" fill="#ffe7b0" fill-rule="evenodd"/>
        <path id="Path_238534" data-name="Path 238534" d="M873.191,1378.938a2.309,2.309,0,0,1-.035-.7c.066-.089.185-.063.2.144a1.53,1.53,0,0,1-.078.581.053.053,0,0,1-.092-.023Z" transform="translate(-871.82 -1377.979)" fill="#ffe7b0" fill-rule="evenodd"/>
        <path id="Path_238535" data-name="Path 238535" d="M887.928,1388.647s.3-.369.4-.383.153.083.021.19-.478.413-.525.384.1-.192.1-.192Z" transform="translate(-886.136 -1387.799)" fill="#ffe7b0" fill-rule="evenodd"/>
        <path id="Path_238536" data-name="Path 238536" d="M894.747,1407.084c.06.116-.2.194-.39.252s-.29.079-.316.042c-.05-.084.632-.437.705-.294Z" transform="translate(-892.198 -1406.113)" fill="#ffe7b0" fill-rule="evenodd"/>
        <path id="Path_238537" data-name="Path 238537" d="M891.486,1437.728s.525.331.546.441-.077.182-.243.057a1.593,1.593,0,0,1-.382-.446.053.053,0,0,1,.079-.053Z" transform="translate(-889.633 -1436.011)" fill="#ffe7b0" fill-rule="evenodd"/>
        <path id="Path_238538" data-name="Path 238538" d="M897.481,1431.264c-.036.128-.275.01-.457-.079s-.267-.14-.259-.184c.019-.1.761.109.716.263Z" transform="translate(-894.855 -1429.435)" fill="#ffe7b0" fill-rule="evenodd"/>
        <path id="Path_238539" data-name="Path 238539" d="M830.908,1427.376a3.185,3.185,0,0,1-.621.15c-.269.024-.409-.211-.107-.247a5.3,5.3,0,0,1,.6-.014c.143.007.21.078.124.111Z" transform="translate(-829.783 -1425.815)" fill="#ffe7b0" fill-rule="evenodd"/>
        <path id="Path_238540" data-name="Path 238540" d="M829.593,1408.707c.032-.14.3-.025.5.063s.292.137.286.183c-.015.106-.822-.079-.782-.247Z" transform="translate(-829.376 -1407.664)" fill="#ffe7b0" fill-rule="evenodd"/>
        <path id="Path_238541" data-name="Path 238541" d="M877.674,1440.032c-.132.024-.133-.244-.135-.445s0-.3.047-.314c.1-.026.245.728.088.759Z" transform="translate(-876.115 -1437.523)" fill="#ffe7b0" fill-rule="evenodd"/>
        <path id="Path_238542" data-name="Path 238542" d="M858,1438.284s-.158.6-.256.653-.2-.018-.129-.215a1.519,1.519,0,0,1,.312-.5.052.052,0,0,1,.073.059Z" transform="translate(-856.673 -1436.497)" fill="#ffe7b0" fill-rule="evenodd"/>
      </g>
    </g>
    <g id="Group_67117" data-name="Group 67117" transform="translate(518.333 799.404)">
      <path id="Path_238543" data-name="Path 238543" d="M678.017,3236.358c.28-1.756-.572-3.814-2.392-4.228a3.4,3.4,0,0,0,.786,2.518,3.37,3.37,0,0,0-3.152.448c.9,1.174,1.627,1.177,3.01,1.395a2.549,2.549,0,0,0-1.628,2.615c1.669-.436,2.955-.929,3.377-2.748Z" transform="translate(-673.258 -3232.13)" fill="#c16ba8" fill-rule="evenodd"/>
      <path id="Path_238544" data-name="Path 238544" d="M757.132,3266.995l.005-.023a7.062,7.062,0,0,0-.69-1.941c-.379-.515-.573-.7-.658-.612s.213.311.481.69a6.1,6.1,0,0,1,.546,1.2,9.562,9.562,0,0,1-1.02-1.338c-.269-.411-.291-.724-.438-.774s.027.5.28.873a10.633,10.633,0,0,0,1.082,1.447,4.628,4.628,0,0,1-.721-.579c-.24-.261-.338-.522-.441-.522s.035.262.163.426a3.83,3.83,0,0,0,.881.846,5.419,5.419,0,0,0-.987-.387c-.419-.105-.724-.121-.756-.017s.569.108.981.275a6.546,6.546,0,0,1,.675.3,10.819,10.819,0,0,0-2.12-.112c-.287.179,1.982.294,2.26.326a4.253,4.253,0,0,1-1.368.2c-.475-.071-.605-.053-.651.008s.252.177.784.205a5,5,0,0,0,1.315-.21,9.689,9.689,0,0,0-1.365.8c-.328.288-.363.438-.309.514s.331-.335.6-.517.94-.534.94-.534a11.873,11.873,0,0,1-1.417,1.4c-.432.327-.643.35-.62.489s.569-.168.924-.467a12.758,12.758,0,0,0,1.215-1.278,2.089,2.089,0,0,1-.811,1.245c-.1.08-.162.152-.161.216s.117.043.257-.051a3.726,3.726,0,0,0,1.094-1.646Z" transform="translate(-752.326 -3263.381)" fill="#f0d0e4" fill-rule="evenodd"/>
      <path id="Path_238545" data-name="Path 238545" d="M855.47,3353.232a.955.955,0,0,0,.364-1.056c-.088-.337-.246-.477-.28-.429a1.543,1.543,0,0,0,.014.383c.01.675-.155,1.009-.1,1.1Z" transform="translate(-850.863 -3348.723)" fill="#211e21" fill-rule="evenodd"/>
    </g>
    <path id="Path_238546" data-name="Path 238546" d="M963.02,1597.8a4.651,4.651,0,0,0,.441-1.381v-.036l.139.027,0,.029a4.869,4.869,0,0,1-.314,1.154,3.088,3.088,0,0,1,1.261-.537l.019-.006.07.105-.039.01a3.681,3.681,0,0,0-1.806,1.081,3.391,3.391,0,0,1,1.941-.083l.026.006-.021.15-.033-.015a2.752,2.752,0,0,0-2.152.343,3.489,3.489,0,0,0-.525.922l-.024-.564.014-.024a4.4,4.4,0,0,1,1-1.18Z" transform="translate(-436.393 -838.228)" fill="#211e21" fill-rule="evenodd"/>
    <g id="Group_67118" data-name="Group 67118" transform="translate(526.641 778.779)">
      <path id="Path_238547" data-name="Path 238547" d="M1003.975,2443.076a5.59,5.59,0,0,0,.53-1.658l0-.044.167.033.005.034a5.843,5.843,0,0,1-.377,1.385,3.705,3.705,0,0,1,1.513-.645l.023-.007.084.127-.046.012a4.418,4.418,0,0,0-2.167,1.3,4.072,4.072,0,0,1,2.33-.1l.031.007-.025.18-.039-.019a3.3,3.3,0,0,0-2.583.412,4.19,4.19,0,0,0-.63,1.107l-.028-.677.017-.029a5.282,5.282,0,0,1,1.2-1.416Z" transform="translate(-1002.76 -2440.688)" fill="#211e21" fill-rule="evenodd"/>
      <path id="Path_238548" data-name="Path 238548" d="M1051.678,2417.47c-.672-.4,0-1.667.759-1.067a.7.7,0,0,1-.007,1.066.759.759,0,0,1-.752,0Zm.383-1.361c-.566-.332-.005-1.385.637-.9a.592.592,0,0,1-.016.891c-.248.2-.622.005-.622.005Zm-1.473-.753a.629.629,0,0,1,.544-1.133.643.643,0,0,1,.23.972c-.26.373-.773.161-.773.161Z" transform="translate(-1049.043 -2414.176)" fill="#fff" fill-rule="evenodd"/>
    </g>
    <g id="Group_67137" data-name="Group 67137" transform="translate(516.401 760.865)">
      <g id="Group_67119" data-name="Group 67119" transform="translate(0.417 6.79)">
        <path id="Path_238549" data-name="Path 238549" d="M646.625,2011.311l-.005-.009a3.483,3.483,0,0,0-.816-.465,2.676,2.676,0,0,0-.781-.22l.006-.121a2.75,2.75,0,0,1,.821.224,4.484,4.484,0,0,1,.635.338,3.413,3.413,0,0,0-1.063-1.085l.052-.109a3.367,3.367,0,0,1,1.083,1.085,4.844,4.844,0,0,0-.231-.773,2.036,2.036,0,0,0-.243-.5l.072-.1s.079.058.283.547a6.692,6.692,0,0,1,.29,1.074Z" transform="translate(-644.219 -2008.66)" fill="#211e21"/>
        <path id="Path_238550" data-name="Path 238550" d="M664.064,1973.973c-.918-1.016.206-1.425.481-.249.128.554-.07.7-.481.249Z" transform="translate(-662.436 -1973.009)" fill="#f7eae8" fill-rule="evenodd"/>
        <path id="Path_238551" data-name="Path 238551" d="M666.4,1975.93c-.066.126-.011.153.112.117.387-.114-.036-.266-.112-.117Z" transform="translate(-665.028 -1975.796)" fill="#211e21" fill-rule="evenodd"/>
        <path id="Path_238552" data-name="Path 238552" d="M616.661,1993.98c-1.405-.411-.614-1.411.3-.5.428.433.331.68-.3.5Z" transform="translate(-615.827 -1992.603)" fill="#f7eae8" fill-rule="evenodd"/>
        <path id="Path_238553" data-name="Path 238553" d="M618.259,1996.959c.012.156.077.147.169.043.29-.319-.182-.219-.169-.043Z" transform="translate(-618.13 -1996.194)" fill="#211e21" fill-rule="evenodd"/>
        <path id="Path_238554" data-name="Path 238554" d="M613.963,2032.773c-1.285-.027-.842-1.061.143-.489.464.268.436.5-.143.489Z" transform="translate(-613.169 -2030.622)" fill="#f7eae8" fill-rule="evenodd"/>
        <path id="Path_238555" data-name="Path 238555" d="M615.187,2036.777c.049.128.1.106.157,0,.172-.34-.206-.145-.157,0Z" transform="translate(-615.132 -2034.981)" fill="#211e21" fill-rule="evenodd"/>
      </g>
      <g id="Group_67136" data-name="Group 67136" transform="translate(0)">
        <g id="Group_67120" data-name="Group 67120" transform="translate(8.531 11.624)">
          <path id="Path_238556" data-name="Path 238556" d="M946.212,2170.8c-1.376-4.23,3.038-5.886,4.53-6.081-.024,1.207-1.508,6.188-4.526,6.084Z" transform="translate(-945.673 -2164.716)" fill="#bc7e44" fill-rule="evenodd"/>
          <path id="Path_238557" data-name="Path 238557" d="M935.275,2221.223s2.082-3.63,3.4-5.36a13.936,13.936,0,0,0-3.7,5Z" transform="translate(-934.983 -2214.573)" fill="#211e21" fill-rule="evenodd"/>
        </g>
        <g id="Group_67121" data-name="Group 67121" transform="translate(2.1 15.638)">
          <path id="Path_238558" data-name="Path 238558" d="M685.743,2326.051c-1.313-3.248-4.814-2.011-5.812-1.373.625.716,3.96,3.825,5.811,1.376Z" transform="translate(-679.931 -2323.907)" fill="#bc7e44" fill-rule="evenodd"/>
          <path id="Path_238559" data-name="Path 238559" d="M728.374,2357.721a44.7,44.7,0,0,0-5.519-1.664,17.718,17.718,0,0,1,5.4,1.136Z" transform="translate(-721.773 -2355.246)" fill="#211e21" fill-rule="evenodd"/>
        </g>
        <path id="Path_238560" data-name="Path 238560" d="M793.782,1808.174l.3-.077c-.027-.24-.085-.7-.143-1.155a21.676,21.676,0,0,0,1.388-2.7l-.169-.083a22.225,22.225,0,0,1-1.272,2.371c-.06-.491-.112-.9-.118-.961l-.233.045c.031.2.077.656.13,1.186a21.482,21.482,0,0,1-1.641-1.991l-.154.115a21.136,21.136,0,0,0,1.828,2.249C793.727,1807.512,793.756,1807.862,793.782,1808.174Z" transform="translate(-786.946 -1801.623)" fill="#211e21" fill-rule="evenodd"/>
        <g id="Group_67122" data-name="Group 67122" transform="translate(12.179 1.177)">
          <path id="Path_238561" data-name="Path 238561" d="M1082.046,1753.057c-.021-2.657,2.791-2.8,3.676-2.646-.231.683-1.974,3.252-3.674,2.649Z" transform="translate(-1081.986 -1750.367)" fill="#bc7e44" fill-rule="evenodd"/>
          <path id="Path_238562" data-name="Path 238562" d="M1079.764,1764.631s1.84-1.691,2.9-2.439a8.323,8.323,0,0,0-3.006,2.184Z" transform="translate(-1079.662 -1761.894)" fill="#211e21" fill-rule="evenodd"/>
        </g>
        <g id="Group_67123" data-name="Group 67123" transform="translate(9.364 0.584)">
          <path id="Path_238563" data-name="Path 238563" d="M970.616,1729.332c.3-2.1-1.9-2.514-2.62-2.484.109.564,1.212,2.78,2.619,2.485Z" transform="translate(-967.996 -1726.847)" fill="#bc7e44" fill-rule="evenodd"/>
          <path id="Path_238564" data-name="Path 238564" d="M991.791,1740.218s-1.273-1.533-2.033-2.237a6.636,6.636,0,0,1,2.141,2.047Z" transform="translate(-989.209 -1737.7)" fill="#211e21" fill-rule="evenodd"/>
        </g>
        <g id="Group_67124" data-name="Group 67124" transform="translate(0.264 5.084)">
          <path id="Path_238565" data-name="Path 238565" d="M610.69,1906.077c-1.367-1.618-3.145-.246-3.6.309.494.293,2.883.941,3.6-.307Z" transform="translate(-607.093 -1905.314)" fill="#bc7e44" fill-rule="evenodd"/>
          <path id="Path_238566" data-name="Path 238566" d="M632.855,1926.823s-1.991-.067-3.023.034a6.635,6.635,0,0,1,2.952-.241Z" transform="translate(-629.259 -1926.01)" fill="#211e21" fill-rule="evenodd"/>
        </g>
        <path id="Path_238567" data-name="Path 238567" d="M702.038,1712.672c-1.893-.8-3.216-1.052-4.607-.432.628-.718,1.661-2.064,1.343-2.219a22.894,22.894,0,0,1-2.411,2.449,20.791,20.791,0,0,1-1.927,1.676,25.971,25.971,0,0,1-2.89,1.5c.088-.307.406-1.345.522-1.674.42-1.194,1.264-2.322,1.8-3.487.6-1.314,2.629-7.027,1.845-6.773-.755.739-.419,1.6-1.106,3.139a32.424,32.424,0,0,1-1.625,3.417c-1.233,2.072-2.229,3.4-2.554,5.538-.019.021-.034.042-.051.064-.048-.3-.1-.6-.178-.892-.425-1.708-2.848-6.408-5.107-7.218-.6.142,1.5,1.653,2.377,3.088a12.122,12.122,0,0,1,1.78,4.4c.317,2.218,3.331,9.4,3.305,13.28-.024,3.6-1.513,4.545-.764,5.012,2.432-2.218,1.868-5.6,1.819-6.246-.209-2.783-2.608-5.691-2.44-9.26a5.045,5.045,0,0,1,.749-1.305,17.111,17.111,0,0,1,3.018-2.081c1.008-.693,1.678-1.627,2.89-2.01a6.039,6.039,0,0,1,4.2.363A1.616,1.616,0,0,0,702.038,1712.672Z" transform="translate(-682.754 -1703.704)" fill="#211e21"/>
        <g id="Group_67126" data-name="Group 67126" transform="translate(0 5.094)">
          <path id="Path_238568" data-name="Path 238568" d="M600.761,1910.439a3.452,3.452,0,0,0-1.911-.648c-3.518-.075-2.383,5.126.209,5.017a5.662,5.662,0,0,0,2.617-1.372,4.037,4.037,0,0,0-.391,2.49c.487,2,5.71,1.4,4.741-1.377a3.283,3.283,0,0,0-1.063-1.717,4.943,4.943,0,0,0,1.567.218c3.8-.189,1.742-6.089-.963-4.5a7.367,7.367,0,0,0-1.567,1.123,3.541,3.541,0,0,0-.053-2.926c-.975-1.681-3.655-1.144-4.2.544a3.127,3.127,0,0,0,1.018,3.142Z" transform="translate(-596.636 -1905.729)" fill="#f7b6b8" fill-rule="evenodd"/>
          <path id="Path_238569" data-name="Path 238569" d="M623.237,2084.347c-.931-.117-2.271.1-2.212.589.064.472.527-.39,1.734-.3a3.07,3.07,0,0,1,1.852.78,4.177,4.177,0,0,0-2.207-.3c-1.379.133-1.685.508-1.587.72s.468-.414,1.7-.451a4,4,0,0,1,1.749.222,7.478,7.478,0,0,1-1.572.416c-.951.15-1.419.1-1.478.333s.764.221,1.655,0a8.659,8.659,0,0,0,1.528-.538,3.026,3.026,0,0,1-1.6.972c-1.006.214-1.794-.034-1.878.328s1.384.213,2.2-.042a5.9,5.9,0,0,0,1.666-.963,2.661,2.661,0,0,1-1.676,1.354c-1.266.4-1.567.3-1.523.522.049.208,1.109.085,2.03-.387a5.454,5.454,0,0,0,1.524-1.244,2.7,2.7,0,0,1-1.055,1.294c-.809.534-1.424.631-1.346.851s.892-.175,1.587-.72a3.01,3.01,0,0,0,1.174-1.608c.237-.885-1.733-1.763-2.266-1.822Z" transform="translate(-620.191 -2079.813)" fill="#f17265" fill-rule="evenodd"/>
          <path id="Path_238570" data-name="Path 238570" d="M735.185,1933.861a5.623,5.623,0,0,0,.632-2.2c.119-1.344-.314-1.759-.4-1.744-.094.031.167.669.137,1.482a7,7,0,0,1-.311,1.886,1.276,1.276,0,0,1-.207.432,11.253,11.253,0,0,0,.159-2.5c-.088-1.067-.522-1.688-.635-1.647a6.01,6.01,0,0,1,.383,1.7,11.035,11.035,0,0,1-.164,2.358,6.781,6.781,0,0,1-.6-2.167c-.044-1,0-1.48-.147-1.5s-.183.562-.1,1.593a7.482,7.482,0,0,0,.57,2.1,5.063,5.063,0,0,1-.91-1.931c-.251-1.132.04-2.029-.137-2.1s-.3.927-.2,1.639a4.2,4.2,0,0,0,.4,1.4c.187.4.591,1.166.591,1.166a2.423,2.423,0,0,1-1.073-1.274c-.482-1.036-.344-2.648-.5-2.625s-.232.818-.119,1.551a3.774,3.774,0,0,0,.758,1.835,4.706,4.706,0,0,0,.749.731,1.95,1.95,0,0,1-1.423-1.226c-.541-1.163-.491-2.4-.674-2.4s-.065.868.083,1.443a3.621,3.621,0,0,0,1.039,1.948,1.3,1.3,0,0,0,1.374.4,2.217,2.217,0,0,0,.729-.342Z" transform="translate(-728.463 -1928.965)" fill="#f17265" fill-rule="evenodd"/>
          <path id="Path_238571" data-name="Path 238571" d="M796.948,2160.329s-.487-.248-.858,1.254-.307,2.49-.031,2.514-.064-1.091.183-1.954.385-1.238.385-1.238a5.319,5.319,0,0,0-.188,2.073c.172.86.4,1.449.615,1.4s-.413-.888-.369-1.9a5.128,5.128,0,0,1,.233-1.539,7.98,7.98,0,0,0,.28,2.278c.3.811.753,1.283.945,1.206.188-.062-.492-.542-.738-1.586a5.6,5.6,0,0,1-.181-1.81,9.925,9.925,0,0,1,.8,1.713c.384,1.031.325,1.265.448,1.246.128-.034.109-.593-.191-1.366a11.737,11.737,0,0,0-.778-1.567,4.266,4.266,0,0,1,1.216,1.658c.4,1.036.3,1.377.477,1.361.177-.031.03-1.071-.413-1.816a10.907,10.907,0,0,0-1.359-1.681,2.707,2.707,0,0,1,1.537,1.237c.615,1.039.733,1.241.881,1.2s-.3-1-.733-1.5a8.255,8.255,0,0,0-1.423-1.123,1.489,1.489,0,0,1,.729.225c.256.189.276.077.2-.056a1.207,1.207,0,0,0-.847-.375,2.007,2.007,0,0,0-.818.153Z" transform="translate(-790.804 -2153.758)" fill="#f17265" fill-rule="evenodd"/>
          <path id="Path_238572" data-name="Path 238572" d="M881.551,2024.81c.74-.424,1.972-.72,2.114-.284s-.606-.141-1.592.374a2.6,2.6,0,0,0-1.262,1.314,3.689,3.689,0,0,1,1.76-1.045c1.222-.368,1.636-.15,1.636.057s-.557-.19-1.626.223a3.37,3.37,0,0,0-1.415.806,6.846,6.846,0,0,0,1.5-.2c.887-.211,1.271-.417,1.4-.245.137.193-.552.466-1.4.591a8.237,8.237,0,0,1-1.527.073,2.988,2.988,0,0,0,1.754.258c.941-.171,1.513-.646,1.725-.372s-1.09.679-1.878.74a5.836,5.836,0,0,1-1.813-.232,2.669,2.669,0,0,0,1.976.555c1.251-.1,1.449-.294,1.5-.086s-.9.463-1.878.38a5.3,5.3,0,0,1-1.8-.519,2.732,2.732,0,0,0,1.433.731c.9.172,1.444.031,1.473.249s-.823.167-1.636-.056a2.934,2.934,0,0,1-1.645-.954c-.551-.669.77-2.114,1.2-2.354Z" transform="translate(-873.069 -2021.321)" fill="#f17265" fill-rule="evenodd"/>
          <path id="Path_238573" data-name="Path 238573" d="M788.548,2082.458a1.435,1.435,0,0,0-.739-.245,1.326,1.326,0,0,0-.629.024.244.244,0,0,1,.067.008h-.084l.016-.008c-.346.006-.677.723-.687.994a1.759,1.759,0,0,0,.684,1.444,1.3,1.3,0,0,0,1.883-.5A1.431,1.431,0,0,0,788.548,2082.458Z" transform="translate(-781.702 -2077.737)" fill="#211e21" fill-rule="evenodd"/>
          <g id="Group_67125" data-name="Group 67125" transform="translate(4.977 4.616)">
            <path id="Path_238574" data-name="Path 238574" d="M800.974,2110.978a.208.208,0,0,0-.019-.3.211.211,0,0,0-.246-.013c-.123.071-.074.228,0,.309A.189.189,0,0,0,800.974,2110.978Z" transform="translate(-800.466 -2110.08)" fill="#fff290" fill-rule="evenodd"/>
            <path id="Path_238575" data-name="Path 238575" d="M805.815,2146.382a.157.157,0,0,0-.113-.166c-.035,0-.143-.024-.163.089a.163.163,0,0,0,.1.211C805.717,2146.531,805.825,2146.506,805.815,2146.382Z" transform="translate(-805.239 -2144.768)" fill="#fff290" fill-rule="evenodd"/>
            <path id="Path_238576" data-name="Path 238576" d="M826.77,2106.157c.054.09.138.141.232.007a.18.18,0,0,0-.064-.267A.166.166,0,0,0,826.77,2106.157Z" transform="translate(-825.912 -2105.462)" fill="#fff290" fill-rule="evenodd"/>
            <path id="Path_238577" data-name="Path 238577" d="M833.544,2129.1a.192.192,0,0,0-.241.177c-.025.128.039.24.207.29a.205.205,0,0,0,.232-.147A.231.231,0,0,0,833.544,2129.1Z" transform="translate(-832.307 -2128.077)" fill="#fff290" fill-rule="evenodd"/>
            <path id="Path_238578" data-name="Path 238578" d="M832.624,2152.78c-.093-.021-.187.01-.172.171a.177.177,0,0,0,.221.14C832.791,2153.036,832.762,2152.817,832.624,2152.78Z" transform="translate(-831.481 -2151.161)" fill="#fff290" fill-rule="evenodd"/>
            <path id="Path_238579" data-name="Path 238579" d="M853.609,2098.849s.177.02.207-.123a.2.2,0,0,0-.163-.271c-.128-.017-.182.047-.2.159A.187.187,0,0,0,853.609,2098.849Z" transform="translate(-851.948 -2098.209)" fill="#fff290" fill-rule="evenodd"/>
            <path id="Path_238580" data-name="Path 238580" d="M858,2128.506a.178.178,0,0,0,.148.214.164.164,0,0,0,.182-.1.181.181,0,0,0-.153-.25C858.072,2128.345,858.018,2128.409,858,2128.506Z" transform="translate(-856.387 -2127.368)" fill="#fff290" fill-rule="evenodd"/>
            <path id="Path_238581" data-name="Path 238581" d="M860.173,2153.272a.169.169,0,0,0-.168.26c.059.075.158.132.247.013A.2.2,0,0,0,860.173,2153.272Z" transform="translate(-858.316 -2151.642)" fill="#fff290" fill-rule="evenodd"/>
            <path id="Path_238582" data-name="Path 238582" d="M794.308,2130.556a.158.158,0,0,0-.118-.151.119.119,0,0,0-.162.089.14.14,0,0,0,.1.2A.127.127,0,0,0,794.308,2130.556Z" transform="translate(-794.017 -2129.35)" fill="#fff290" fill-rule="evenodd"/>
            <path id="Path_238583" data-name="Path 238583" d="M871.638,2117.277a.13.13,0,0,0-.177.083.188.188,0,0,0,.113.218.138.138,0,0,0,.178-.135A.157.157,0,0,0,871.638,2117.277Z" transform="translate(-869.505 -2116.55)" fill="#fff290" fill-rule="evenodd"/>
            <path id="Path_238584" data-name="Path 238584" d="M815.324,2161.5a.178.178,0,0,0-.2.159c-.02.113.02.2.172.241a.178.178,0,0,0,.2-.108A.215.215,0,0,0,815.324,2161.5Z" transform="translate(-814.586 -2159.663)" fill="#fff290" fill-rule="evenodd"/>
            <path id="Path_238585" data-name="Path 238585" d="M808.918,2090.352s.158.029.187-.114a.192.192,0,0,0-.163-.272.164.164,0,0,0-.2.144A.2.2,0,0,0,808.918,2090.352Z" transform="translate(-808.37 -2089.936)" fill="#fff290" fill-rule="evenodd"/>
            <path id="Path_238586" data-name="Path 238586" d="M835.532,2089.091a.189.189,0,0,0-.078-.272.174.174,0,0,0-.168.259C835.36,2089.159,835.439,2089.225,835.532,2089.091Z" transform="translate(-834.221 -2088.815)" fill="#fff290" fill-rule="evenodd"/>
            <path id="Path_238587" data-name="Path 238587" d="M845.273,2169.7c-.015.1.019.2.182.159a.168.168,0,0,0,.109-.231A.159.159,0,0,0,845.273,2169.7Z" transform="translate(-843.978 -2167.519)" fill="#fff290" fill-rule="evenodd"/>
            <path id="Path_238588" data-name="Path 238588" d="M873.2,2144.563a.13.13,0,0,0-.177.083.154.154,0,0,0,.118.2c.074.029.168,0,.178-.135A.157.157,0,0,0,873.2,2144.563Z" transform="translate(-871.022 -2143.148)" fill="#fff290" fill-rule="evenodd"/>
            <path id="Path_238589" data-name="Path 238589" d="M814.133,2130.323a.123.123,0,0,0-.177.083.163.163,0,0,0,.1.211c.079.014.188-.01.177-.135A.143.143,0,0,0,814.133,2130.323Z" transform="translate(-813.443 -2129.265)" fill="#fff290" fill-rule="evenodd"/>
            <path id="Path_238590" data-name="Path 238590" d="M845.182,2113.558a.157.157,0,0,0-.118-.15.13.13,0,0,0-.177.083.16.16,0,0,0,.118.2C845.079,2113.724,845.172,2113.692,845.182,2113.558Z" transform="translate(-843.6 -2112.778)" fill="#fff290" fill-rule="evenodd"/>
          </g>
        </g>
        <g id="Group_67127" data-name="Group 67127" transform="translate(8.381 2.477)">
          <path id="Path_238591" data-name="Path 238591" d="M932.9,1803.054a1.3,1.3,0,0,0-2.478-.362,1.52,1.52,0,0,0-1,2.53c-.547.944.6,1.9,1.552,1.518.552,1.15,2.879.084,2.344-1.016,1.175-.255.825-2.924-.417-2.67Z" transform="translate(-929.021 -1801.925)" fill="#f17265" fill-rule="evenodd"/>
          <path id="Path_238592" data-name="Path 238592" d="M1020.605,1898.793s-.189-.063-.175-.223a.231.231,0,0,1,.285-.2.221.221,0,0,1-.11.427Z" transform="translate(-1018.124 -1895.925)" fill="#211e21" fill-rule="evenodd"/>
          <path id="Path_238593" data-name="Path 238593" d="M961.119,1835.8a1.211,1.211,0,0,0-.147-2.1,1.917,1.917,0,0,1,.147,2.1Zm-.731-.715c-.18.547-.762.513-1.074.018a.817.817,0,0,0,1.074-.018Zm-.05-.659c-.219-.528-.8-.453-1.071.069a.821.821,0,0,1,1.071-.069Zm.586-.933a1.4,1.4,0,0,0-2.425.21,2.221,2.221,0,0,1,2.425-.21Zm-2.047,1.6a.839.839,0,0,0,1.029,1.026,1.318,1.318,0,0,1-1.029-1.026Zm.672-1.552a.844.844,0,0,0-.751,1.254,1.338,1.338,0,0,1,.751-1.254Zm1.4,1.035a.839.839,0,0,0-1.123-.926,1.333,1.333,0,0,1,1.123.926Zm-.954,1.43a.843.843,0,0,0,.944-1.114,1.347,1.347,0,0,1-.944,1.114Zm-1.448-2.061a1.216,1.216,0,0,0,.292,2.087,1.931,1.931,0,0,1-.292-2.087Zm.6,2.374a1.216,1.216,0,0,0,2.075-.371,1.922,1.922,0,0,1-2.075.371Z" transform="translate(-957.349 -1832.113)" fill="#f7eae8" fill-rule="evenodd"/>
        </g>
        <g id="Group_67129" data-name="Group 67129" transform="translate(14.609 8.788)">
          <path id="Path_238594" data-name="Path 238594" d="M1177.137,2052.567a.583.583,0,0,0-.46.036c-.432-.3-.317-.215-.517-.363l-.135.149a1.386,1.386,0,0,1,.5.388.587.587,0,0,0,.346.593.454.454,0,0,0,.361.008l.051.038.251-.212-.045-.046.009-.028A.689.689,0,0,0,1177.137,2052.567Z" transform="translate(-1176.025 -2052.239)" fill="#211e21"/>
          <g id="Group_67128" data-name="Group 67128" transform="translate(0.632 0.338)">
            <path id="Path_238595" data-name="Path 238595" d="M1201.134,2066.382c.208.469.743,1.327-.029,1.648.509.185.71.117.743-.309.247.362.627.409.628-.183.4.341.79.074.423-.473.672.122.579-.364.329-.639.433-.078.275-.585.17-.773-.343.6-.816.234-1.461.084-.5-.138-.934.172-.8.645Z" transform="translate(-1201.105 -2065.653)" fill="#f7eae8" fill-rule="evenodd"/>
            <path id="Path_238596" data-name="Path 238596" d="M1201.991,2069.821a.482.482,0,0,0-.291.361,1.51,1.51,0,0,0,.154.259c.214.3.437.443.493.342s-.15-.174-.293-.356a.533.533,0,0,1-.146-.314s.194.159.385.3.3.159.22.015a2.86,2.86,0,0,0-.436-.436s.008,0,.191.028.475.213.5.146-.082-.136-.309-.252a1.219,1.219,0,0,0-.473-.088Z" transform="translate(-1201.685 -2069.716)" fill="#f17265" fill-rule="evenodd"/>
          </g>
        </g>
        <g id="Group_67131" data-name="Group 67131" transform="translate(15.919 5.62)">
          <path id="Path_238597" data-name="Path 238597" d="M1228.545,1988.357a.581.581,0,0,0-.086.453c-.4.337-.291.249-.486.4l.108.17a1.382,1.382,0,0,1,.506-.381.587.587,0,0,0,.663-.179.455.455,0,0,0,.1-.346l.051-.039-.139-.3-.056.032-.025-.016A.687.687,0,0,0,1228.545,1988.357Z" transform="translate(-1227.973 -1986.583)" fill="#211e21"/>
          <g id="Group_67130" data-name="Group 67130" transform="translate(0.635)">
            <path id="Path_238598" data-name="Path 238598" d="M1253.709,1929c.507-.077,1.476-.369,1.583.46.312-.443.3-.654-.1-.8.414-.143.559-.5-.012-.655.433-.3.279-.743-.346-.533.294-.616-.2-.654-.53-.485.039-.438-.492-.419-.7-.367.491.489.011.849-.3,1.432-.266.449-.079.946.411.945Z" transform="translate(-1253.177 -1926.598)" fill="#f7eae8" fill-rule="evenodd"/>
            <path id="Path_238599" data-name="Path 238599" d="M1253.294,1978.744a.482.482,0,0,0,.272.375,1.5,1.5,0,0,0,.29-.081c.342-.128.543-.305.46-.386s-.207.1-.42.189a.53.53,0,0,1-.341.059s.2-.146.386-.294.233-.251.073-.209a2.863,2.863,0,0,0-.535.307s0-.008.076-.177.33-.4.273-.448-.153.043-.324.232a1.221,1.221,0,0,0-.209.433Z" transform="translate(-1253.291 -1976.772)" fill="#f17265" fill-rule="evenodd"/>
          </g>
        </g>
        <g id="Group_67133" data-name="Group 67133" transform="translate(13.717 5.381)">
          <path id="Path_238600" data-name="Path 238600" d="M1173.446,1961.617a.389.389,0,0,0,.233.2c.06.346.047.252.07.416l.134-.005a.933.933,0,0,1-.051-.421.392.392,0,0,0,.119-.444.3.3,0,0,0-.166-.175l-.006-.042-.219-.02v.043l-.018.009A.46.46,0,0,0,1173.446,1961.617Z" transform="translate(-1172.597 -1960.019)" fill="#211e21"/>
          <g id="Group_67132" data-name="Group 67132">
            <path id="Path_238601" data-name="Path 238601" d="M1142.068,1918.591c.125-.319.281-.977.8-.761-.152-.329-.278-.392-.5-.208.056-.287-.1-.49-.383-.213-.026-.35-.336-.41-.424.022-.258-.377-.445-.1-.458.144-.241-.169-.407.144-.447.282.448-.121.495.278.727.655.171.3.521.363.685.078Z" transform="translate(-1140.656 -1917.127)" fill="#f7eae8" fill-rule="evenodd"/>
            <path id="Path_238602" data-name="Path 238602" d="M1170.785,1957.508a.321.321,0,0,0,.308-.032.993.993,0,0,0,.051-.195c.041-.241.005-.417-.069-.4s-.012.152-.031.306a.359.359,0,0,1-.08.217s-.016-.167-.041-.322-.067-.219-.1-.112a1.909,1.909,0,0,0,0,.412s0,0-.077-.1-.122-.326-.168-.308-.026.1.026.265a.813.813,0,0,0,.18.266Z" transform="translate(-1169.801 -1955.882)" fill="#f17265" fill-rule="evenodd"/>
          </g>
        </g>
        <g id="Group_67134" data-name="Group 67134" transform="translate(12.143 7.01)">
          <path id="Path_238603" data-name="Path 238603" d="M1079.17,1983.22c-1.078-.234-.706-1.168-.315-1.052.077-.53.844-.309.97.423-.06-.834.787-1.147.861-.627.568-.157.6.634-.021.981.656-.179,1.307.444.7.744.319.368-.454.59-.978.209.578.505.345,1.429-.237.965-.179.518-.892-.076-.543-.871-.438.937-1.379.422-1.127.043-.613-.187-.03-.966.69-.815Z" transform="translate(-1078.223 -1981.71)" fill="#c16ba8" fill-rule="evenodd"/>
          <path id="Path_238604" data-name="Path 238604" d="M1117.376,2019.357c-.464-.1-.3-.5-.136-.455.035-.23.363-.133.419.182-.027-.359.34-.5.371-.272.246-.064.261.276-.01.424.286-.075.566.194.3.32.138.162-.2.259-.425.092.251.218.149.616-.1.417-.078.226-.384-.032-.235-.375-.189.405-.594.183-.487.019-.263-.083-.012-.421.3-.353Z" transform="translate(-1115.99 -2017.771)" fill="#f0d0e4" fill-rule="evenodd"/>
          <path id="Path_238605" data-name="Path 238605" d="M1139.219,2037.726c.363-.075.348.448.045.4a.2.2,0,0,1-.045-.4Z" transform="translate(-1137.539 -2036.306)" fill="#211e21" fill-rule="evenodd"/>
        </g>
        <g id="Group_67135" data-name="Group 67135" transform="translate(4.554 0.269)">
          <path id="Path_238606" data-name="Path 238606" d="M779.532,1764.089a.463.463,0,0,0,.7.339.5.5,0,0,0,.23-.631A.5.5,0,0,0,779.532,1764.089Z" transform="translate(-779.472 -1762.278)" fill="#f7eae8"/>
          <path id="Path_238607" data-name="Path 238607" d="M818.075,1715.449c.63-.057.586-1.214-.177-1.049a.569.569,0,0,0-.365.777C817.668,1715.462,818.075,1715.449,818.075,1715.449Z" transform="translate(-816.471 -1714.384)" fill="#f7eae8"/>
          <path id="Path_238608" data-name="Path 238608" d="M830.769,1775.909c.026.428.484.471.732.353a.525.525,0,0,0,.238-.654A.516.516,0,0,0,830.769,1775.909Z" transform="translate(-829.418 -1773.786)" fill="#f7eae8"/>
          <path id="Path_238609" data-name="Path 238609" d="M777.641,1818.163a.568.568,0,0,0-.364.777c.133.285.541.272.541.272C778.447,1819.155,778.4,1818,777.641,1818.163Z" transform="translate(-777.228 -1815.531)" fill="#f7eae8"/>
          <path id="Path_238610" data-name="Path 238610" d="M833.32,1822.75a.619.619,0,0,0,.895.325.586.586,0,0,0,.167-.868C834.118,1821.781,832.94,1821.937,833.32,1822.75Z" transform="translate(-831.832 -1819.264)" fill="#f7eae8"/>
          <path id="Path_238611" data-name="Path 238611" d="M902.76,1789.667a.565.565,0,0,0-.359.776c.133.285.536.273.536.273C903.572,1790.658,903.523,1789.5,902.76,1789.667Z" transform="translate(-899.198 -1787.753)" fill="#f7eae8"/>
          <path id="Path_238612" data-name="Path 238612" d="M873.237,1746.657a.479.479,0,0,0-.473.578c.056.337.473.367.473.367A.473.473,0,0,0,873.237,1746.657Z" transform="translate(-870.348 -1745.842)" fill="#f7eae8"/>
        </g>
      </g>
    </g>
    <g id="Group_67152" data-name="Group 67152" transform="translate(516.372 782.354)">
      <g id="Group_67138" data-name="Group 67138" transform="translate(6.567 0)">
        <path id="Path_238613" data-name="Path 238613" d="M861.574,2557.743c-.362.465.214.677.4.49.32-.294-.1-.876-.4-.49Zm-.944-.273c-.362.465.214.677.411.489.313-.292-.108-.874-.411-.489Zm-1,.078c-.367.474.207.679.4.49.313-.292-.1-.875-.4-.49Zm.431-.923c-.36.473.214.677.411.489.305-.29-.107-.874-.411-.489Zm1.322.044c-.367.474.214.677.4.483.315-.285-.105-.866-.4-.483Zm-.632-.6c-.37.467.2.672.394.485.32-.294-.1-.868-.394-.485Z" transform="translate(-859.418 -2555.945)" fill="#fff" fill-rule="evenodd"/>
        <path id="Path_238614" data-name="Path 238614" d="M857.038,2646.7a6.36,6.36,0,0,1,.021-1.523.587.587,0,0,0,.108-.013c.785-.227,2.228-2.493.614-1.371.245-.753-.2-1.121-.616,0-.121-1.6-.67-.738-.591-.12h0c-1.036-1.742-.723,1.113.2,1.456l-.005.01a.17.17,0,0,1,.043.012,6.44,6.44,0,0,0-.017,1.57Z" transform="translate(-855.927 -2640.684)" fill="#211e21"/>
      </g>
      <path id="Path_238615" data-name="Path 238615" d="M772.553,3000.2a2.081,2.081,0,0,1,1.472.4c.6.446,2.693,2.8,2.693,2.8l.2-.562a12.059,12.059,0,0,0-3.037-2.669,8.528,8.528,0,0,1-1.152-.684Z" transform="translate(-768.089 -2988.29)" fill="#211e21" fill-rule="evenodd"/>
      <g id="Group_67141" data-name="Group 67141" transform="translate(0.957 13.379)">
        <path id="Path_238616" data-name="Path 238616" d="M702.411,3090.2a12.418,12.418,0,0,0,4.6-2.162,11.867,11.867,0,0,1-2.822,2.556l.13.153a10.988,10.988,0,0,0,3.534-3.391c.168-.269,1.175-1.469-.03-.342a12.518,12.518,0,0,1-4.135,1.392l-.015.216a12.643,12.643,0,0,0,3.368-.932,11.71,11.71,0,0,1-4.747,2.334Z" transform="translate(-700.559 -3086.542)" fill="#211e21"/>
        <g id="Group_67140" data-name="Group 67140" transform="translate(0 1.007)">
          <g id="Group_67139" data-name="Group 67139">
            <path id="Path_238617" data-name="Path 238617" d="M634.948,3202.92c-1.033-.249-1.652.317-.857.382a2.731,2.731,0,0,1,.358.069c-.94-.039-1.686.726.034.309-1.106.373-1.375,1.026.176.354,0,0-.083.077-.25.2-.45.323-.035.667.774-.038C635.895,3203.573,635.75,3203.121,634.948,3202.92Z" transform="translate(-633.451 -3200.931)" fill="#fff" fill-rule="evenodd"/>
            <path id="Path_238618" data-name="Path 238618" d="M685.685,3126.832c.151.063.469.23.469.23-.884-.308-1.823.217-.056.306-1.164.041-1.6.593.069.388,0,0-.1.049-.294.123-1.068.4-.228.629.75.188.862-.4.848-.871.145-1.3C685.848,3126.241,684.947,3126.545,685.685,3126.832Z" transform="translate(-683.763 -3126.48)" fill="#fff" fill-rule="evenodd"/>
            <path id="Path_238619" data-name="Path 238619" d="M708.641,3237.436a2.335,2.335,0,0,1,.362-.011c-.922.163-1.488,1.075.1.294-1,.6-1.122,1.3.245.31,0,0-.065.086-.2.248-.368.411.111.661.748-.2.568-.762.326-1.171-.5-1.2C708.339,3236.85,707.854,3237.536,708.641,3237.436Z" transform="translate(-706.222 -3234.089)" fill="#fff" fill-rule="evenodd"/>
          </g>
        </g>
      </g>
      <g id="Group_67143" data-name="Group 67143" transform="translate(8.896 11.037)">
        <g id="Group_67142" data-name="Group 67142">
          <path id="Path_238620" data-name="Path 238620" d="M952.043,3001.259c-.019.591.174.791-.355,1.252a1.2,1.2,0,0,1,.117-1.541,8,8,0,0,1-.588-.827,1.062,1.062,0,0,1-.523,1.181,1.047,1.047,0,0,1,.341-1.479,10.229,10.229,0,0,1-.563-1.128c-.162.521-.278.987-.842,1.148-.275-.841.185-1.515.718-1.461-.149-.4-.313-.907-.42-1.331a1.264,1.264,0,0,1-1.017.94,1.138,1.138,0,0,1,.9-1.484q-.1-.5-.158-1.015a2.226,2.226,0,0,1-1.328.884c.018-1.066.621-1.413,1.282-1.334-.023-.339-.046-.865-.045-1.207,0-.258.28-.235.264,0,0,.348.006.692.03,1.034.718.129,1.133.268,1.348,1.164-.748-.044-.942-.075-1.31-.652.04.388.091.766.162,1.143a1.478,1.478,0,0,1,1.255,1.225c-.628.088-.846-.183-1.136-.667a11.742,11.742,0,0,0,.338,1.166.939.939,0,0,1,1.216.685.775.775,0,0,1-1.066-.291,10.2,10.2,0,0,0,.518,1.084.758.758,0,1,1,.183.313,9.106,9.106,0,0,0,.546.792c.537-.309.993-.021,1.365.455a1,1,0,0,1-1.116-.149c.051.062.15.176.262.3,1.15.277.884,1.17.884,1.17-.832-.084-.869-.438-1.036-1.108-.093-.111-.18-.206-.225-.264Z" transform="translate(-948.324 -2993.672)" fill="#bc7e44" fill-rule="evenodd"/>
        </g>
      </g>
      <g id="Group_67144" data-name="Group 67144" transform="translate(4.029 1.679)">
        <path id="Path_238621" data-name="Path 238621" d="M756.831,2626.5s.684-2.969-1.464-3.974C755.366,2622.526,754.783,2624.29,756.831,2626.5Z" transform="translate(-755.29 -2622.526)" fill="#bc7e44" fill-rule="evenodd"/>
        <path id="Path_238622" data-name="Path 238622" d="M780.966,2669.1a11.342,11.342,0,0,0-1.005-3.1A14.37,14.37,0,0,0,780.966,2669.1Z" transform="translate(-779.339 -2664.905)" fill="#211e21" fill-rule="evenodd"/>
      </g>
      <g id="Group_67145" data-name="Group 67145" transform="translate(8.665 15.035)">
        <path id="Path_238623" data-name="Path 238623" d="M939.371,3161.437s-.982,2.884,1.053,4.1C940.424,3165.539,941.183,3163.844,939.371,3161.437Z" transform="translate(-939.134 -3161.204)" fill="#bc7e44" fill-rule="evenodd"/>
        <path id="Path_238624" data-name="Path 238624" d="M946.023,3152.209a11.343,11.343,0,0,0,.685,3.189A14.371,14.371,0,0,0,946.023,3152.209Z" transform="translate(-945.849 -3152.209)" fill="#211e21" fill-rule="evenodd"/>
      </g>
      <g id="Group_67146" data-name="Group 67146" transform="translate(0.532 4.306)">
        <path id="Path_238625" data-name="Path 238625" d="M620.793,2727.763s-2.329-1.964-4.2-.51C616.589,2727.252,617.893,2728.576,620.793,2727.763Z" transform="translate(-616.589 -2726.717)" fill="#bc7e44" fill-rule="evenodd"/>
        <path id="Path_238626" data-name="Path 238626" d="M668.366,2748.388a11.343,11.343,0,0,0-3.22-.521A14.348,14.348,0,0,0,668.366,2748.388Z" transform="translate(-663.922 -2747.316)" fill="#211e21" fill-rule="evenodd"/>
      </g>
      <g id="Group_67147" data-name="Group 67147" transform="translate(10.576 3.739)">
        <path id="Path_238627" data-name="Path 238627" d="M1020.795,2754.575a6.806,6.806,0,0,0-5.143,1.387,6.673,6.673,0,0,1,4.711-2.388c.116-.006.042-.135-.05-.142a6.88,6.88,0,0,0-4.883,2.421,6.625,6.625,0,0,1,4.048-3.443c.112-.037.009-.176-.084-.158a7.026,7.026,0,0,0-4.459,4.068c-.006.014.033.086.03.1a.081.081,0,0,0,.111.1c.015-.007.139.109.154.094,1.638-1.344,3.447-2.282,5.575-1.905C1020.922,2754.729,1020.889,2754.6,1020.795,2754.575Z" transform="translate(-1014.933 -2751.039)" fill="#211e21"/>
        <path id="Path_238628" data-name="Path 238628" d="M1148.262,2706.8a2.962,2.962,0,0,0,1.725.257,5.25,5.25,0,0,0,1.416-.376s.478.352.583.23-.437-.5-.437-.5c1.172.01,1.007-.553-.081-.305.7-.448.13-.873-.26-.217a3.432,3.432,0,0,0-2.945.914Zm.358.938c.187.528,1.84.69,2.374.644.239.47.787.272.127-.226.794.151.921-.33.011-.279.379-.219.493-.782-.167-.2,0,0-1.616-.725-2.345.057Zm-1.41-1.752c.446.342,1.924-.418,2.345-.745.454.264.807-.2-.019-.26.753-.3.594-.776-.139-.242.2-.386-.01-.917-.246-.07,0,0-1.752.269-1.942,1.317Z" transform="translate(-1143.875 -2704.214)" fill="#f17265" fill-rule="evenodd"/>
      </g>
      <g id="Group_67148" data-name="Group 67148" transform="translate(10.257 8.639)">
        <path id="Path_238629" data-name="Path 238629" d="M1160.526,2965.1a.429.429,0,0,0-.719-.043.462.462,0,0,0,.018.614c.346.351.924-.085.7-.571Zm-1.753,3.97a.425.425,0,0,0-.711-.035.462.462,0,0,0,.019.614c.345.35.924-.085.693-.578Zm.554-1.374a.415.415,0,0,0-.7-.043.453.453,0,0,0,.018.613c.339.344.925-.084.686-.57Zm.6-1.314a.423.423,0,0,0-.711-.05.456.456,0,0,0,.026.621c.339.343.917-.093.685-.571Z" transform="translate(-1154.028 -2963.208)" fill="#fff" fill-rule="evenodd"/>
        <path id="Path_238630" data-name="Path 238630" d="M1007.559,2899.55c.254.608-.464.338-1.289.28.906.415,1.39,1.622-.274,1.368.709.414,1.236,1.863-.661,1.388,1.371,1.009.623,1.851-.59,1.124,2.185,2.6-3.465-.357-2.325-3.317a3.14,3.14,0,0,1,5.139-.844Z" transform="translate(-1002.266 -2898.576)" fill="#c16ba8" fill-rule="evenodd"/>
        <path id="Path_238631" data-name="Path 238631" d="M1004.038,2915.461a1.781,1.781,0,0,1,.108-.377,2.777,2.777,0,0,1,.445-.77,2.622,2.622,0,0,1,1.352-.642c.955-.115,1.188.182,1.164.311s-.485.087-.894.16a2.763,2.763,0,0,0-.721.215,4.663,4.663,0,0,1,1.24.22c.559.2.7.573.639.693s-.733-.255-1.1-.348a3.835,3.835,0,0,0-.862-.082,7.869,7.869,0,0,1,1.349.865c.436.412.5.5.366.631s-.664-.216-1.057-.431-.883-.437-.883-.437a2.841,2.841,0,0,0,.48.806c.285.32.844.611.767.777-.062.167-.516.133-.959-.286a5.483,5.483,0,0,1-.833-1.058,2.124,2.124,0,0,0,.1.909c.156.432.608.708.448.881s-1.183-.863-1.152-2.037Z" transform="translate(-1003.993 -2913.267)" fill="#f7b6b8" fill-rule="evenodd"/>
      </g>
      <path id="Path_238632" data-name="Path 238632" d="M752.834,2639.483c-2.008,1.17-2.92,5.314-2.92,5.313a53.819,53.819,0,0,1,.181-5.611c-1.1.285-.643,3.574-.65,4.519a25.743,25.743,0,0,1-.145,3.045c-.079.3-.36,1.208-.421,1.388l-.008.007,0,.008c-.194.575-.415,1.165-.648,1.756a15.061,15.061,0,0,0-4.452-8.253s-1.44-1.037-.549-.009c0,0,4.74,4.7,3.977,10.581-.15.3-.387,1.432-.455,1.537q-.189.289-.366.542c-.812,2.779,1.3,5.065.78,5.678.259-2.309-1.135-2.971-.309-4.37.185-.314.347-.629.483-.92.5-1.07,2.279-6.458,2.72-7.9.429-1.408.742-2.9,1.281-4.232.922-2.284,2.32-2.694,2.3-3.349A1.377,1.377,0,0,0,752.834,2639.483Z" transform="translate(-739.216 -2637.087)" fill="#211e21" fill-rule="evenodd"/>
      <g id="Group_67149" data-name="Group 67149" transform="translate(5.148 10.822)">
        <path id="Path_238633" data-name="Path 238633" d="M803.891,2988.479c2.591.731,2.766-2.473-.222-.951,2.489-1.424-.273-3.4-.819-.6.421-2.609-2.674-2.206-1.081.179-1.595-2.224-3.536.911-.5.968-2.951.195-1.179,3.535.643.939-1.276,2.856,2.271,2.906,1.2,0,1.262,2.729,3.851.116.781-.54Z" transform="translate(-799.672 -2985.141)" fill="#f7b6b8"/>
        <path id="Path_238634" data-name="Path 238634" d="M836.05,3024.071a3.179,3.179,0,0,0-.364.883c-.073.4.011.488.07.425s.08-.462.2-.74a2.5,2.5,0,0,1,.185-.371s-.038.542-.062,1-.025.578.03.587.119-.287.15-.809.041-.606.041-.606a3.558,3.558,0,0,1,.186.675c.011.2.1.236.124.182a1.966,1.966,0,0,0-.133-.832,2.2,2.2,0,0,1-.163-.433Zm-.335-.386a3.214,3.214,0,0,0-.941.15c-.389.147-.42.264-.336.28s.435-.177.739-.216a1.718,1.718,0,0,1,.41-.034s-.486.249-.9.469-.508.281-.5.333.309-.052.774-.3.549-.276.549-.276a3.836,3.836,0,0,1-.5.516c-.166.1-.157.211-.1.2a1.981,1.981,0,0,0,.651-.557,3.017,3.017,0,0,1,.3-.364Zm.091-.371a3.154,3.154,0,0,0-.647-.683c-.337-.224-.449-.179-.415-.108s.385.254.59.478a2.027,2.027,0,0,1,.254.314s-.475-.249-.891-.455-.514-.249-.544-.209.213.225.673.456.535.285.535.285a3.643,3.643,0,0,1-.7-.1c-.18-.068-.261,0-.215.043a1.873,1.873,0,0,0,.814.2,2.355,2.355,0,0,1,.467.027Zm.433-.053a3.185,3.185,0,0,0,.081-.944c-.047-.405-.16-.458-.191-.38s.066.458.03.762a1.822,1.822,0,0,1-.064.4s-.127-.524-.246-.97-.149-.552-.206-.544-.023.309.1.812.145.585.145.585a3.632,3.632,0,0,1-.385-.582c-.064-.186-.174-.2-.172-.136a1.814,1.814,0,0,0,.383.744,2.861,2.861,0,0,1,.287.364Zm.439.118a3.262,3.262,0,0,0,.757-.589c.264-.321.231-.439.155-.408s-.3.364-.544.554a1.867,1.867,0,0,1-.339.228s.3-.458.553-.852.305-.492.267-.53-.246.2-.532.636-.342.514-.342.514a3.621,3.621,0,0,1,.183-.691c.094-.174.03-.253-.017-.215a1.886,1.886,0,0,0-.294.8,2.64,2.64,0,0,1-.084.465Zm.122.306a2.977,2.977,0,0,0,.9.277c.411.035.49-.06.422-.105s-.466-.035-.759-.127a2.067,2.067,0,0,1-.377-.146s.545-.013,1.009-.037.577-.031.588-.085-.293-.092-.822-.069-.6.016-.6.016a3.279,3.279,0,0,1,.666-.248c.2-.029.233-.128.171-.146a1.988,1.988,0,0,0-.821.221,2.337,2.337,0,0,1-.43.2Zm-.181.336a3.3,3.3,0,0,0,.446.832c.263.306.385.292.373.21s-.306-.348-.445-.618a2.232,2.232,0,0,1-.162-.365s.393.362.738.671.426.373.473.343-.148-.27-.53-.617-.439-.417-.439-.417a3.807,3.807,0,0,1,.642.282c.157.117.253.071.216.016a1.841,1.841,0,0,0-.725-.414,2.178,2.178,0,0,1-.445-.144Z" transform="translate(-833.279 -3020.669)" fill="#f17265" fill-rule="evenodd"/>
        <path id="Path_238635" data-name="Path 238635" d="M891.106,3073.646s-.526-.147-.571-.562a.778.778,0,0,1,.8-.846c1.04.1.6,1.6-.229,1.407Z" transform="translate(-888.239 -3070.039)" fill="#211e21" fill-rule="evenodd"/>
      </g>
      <g id="Group_67150" data-name="Group 67150" transform="translate(0 7.85)">
        <path id="Path_238636" data-name="Path 238636" d="M599.019,2874.347c-1.491,2.076-4.554.033-2.875-.041-.849-.251-.92-1.01.111-1.1-.678-.261-.866-1.274.315-1.32-.82-.577-.478-1.21.373-1.111-.914-1.124,3.091-.156,2.48,2.6a3.192,3.192,0,0,1-.4.975Z" transform="translate(-595.495 -2870.236)" fill="#ba591b" fill-rule="evenodd"/>
        <path id="Path_238637" data-name="Path 238637" d="M611.12,2871.7a2.9,2.9,0,0,1-4,.459c-.308-.5.352-.357,1.091-.415-.849-.251-1.438-1.24.058-1.24-.682-.276-1.34-1.48.4-1.307-1.348-.707-.807-1.547.363-1.07-2.269-1.988,3.091-.156,2.49,2.605a3.784,3.784,0,0,1-.4.967Z" transform="translate(-606.749 -2867.289)" fill="#f4943f" fill-rule="evenodd"/>
        <path id="Path_238638" data-name="Path 238638" d="M716.276,2948.634a.562.562,0,0,0-.024.127,4.06,4.06,0,0,1-.228.638,2.306,2.306,0,0,1-.714.708c-.443.223-.568.236-.606.156s.116-.124.506-.377a3.028,3.028,0,0,0,.652-.578s-.53.234-.745.3-.617.091-.636,0,.444-.14.782-.281a6.728,6.728,0,0,0,.622-.312s-.666-.137-.96-.242-.359-.2-.338-.259.328-.018.8.083a1.556,1.556,0,0,1,.541.149.95.95,0,0,0-.335-.517c-.31-.268-.566-.4-.549-.472s.4.037.69.3a.928.928,0,0,1,.326.512,1.651,1.651,0,0,0-.24-.771c-.2-.276-.357-.353-.316-.447s.453.159.6.534a3.088,3.088,0,0,1,.173.745Z" transform="translate(-711.481 -2945.32)" fill="#fff290" fill-rule="evenodd"/>
      </g>
      <g id="Group_67151" data-name="Group 67151" transform="translate(3.298 3.693)">
        <path id="Path_238639" data-name="Path 238639" d="M728.653,2708.036c-4.29,1.033-1.952-5.769.745-2.449-2.229-4.425,4.761-3.931,2.54-.28,3.124-3.068,5.513,3.1.635,2.708,4.235.9-1.314,6.167-1.778,1.311-.153,4.827-6.069.81-2.142-1.29Z" transform="translate(-726.286 -2702.418)" fill="#d82a52" fill-rule="evenodd"/>
        <path id="Path_238640" data-name="Path 238640" d="M790.368,2775.674s.65-1.806.435-1.947-.744,1.524-.744,1.524-.479-1.218-.673-1.2.474,1.711.474,1.711Zm-.964.7s-1.246-1.063-1.609-.962,1,.883,1,.883-1.505.043-1.527.357,2.054.072,2.054.072Zm.1.9s-1.614,1.031-1.529,1.275,1.516-.754,1.516-.754-.36,1.259-.189,1.361.669-1.644.669-1.644Zm1.2-.074s1.413.825,1.44,1.193-1.161-.636-1.161-.636.456,1.432.165,1.554-.749-1.917-.749-1.917Zm.173-1.148s1.439-1.275,1.648-1.124-1.142,1.259-1.142,1.259,1.307,0,1.359.181-1.765.19-1.765.19Z" transform="translate(-785.725 -2771.921)" fill="#f7eae8" fill-rule="evenodd"/>
        <path id="Path_238641" data-name="Path 238641" d="M856.518,2847.828a1.131,1.131,0,0,0,1.711.309,1.06,1.06,0,0,0,.029-1.608c-.606-.682-2.446-.1-1.74,1.3Z" transform="translate(-853.079 -2842.616)" fill="#211e21" fill-rule="evenodd"/>
      </g>
    </g>
  </g>
</svg>
