<svg xmlns="http://www.w3.org/2000/svg" width="17.841" height="20.389" viewBox="0 0 17.841 20.389">
  <g id="shield-with-lock" transform="translate(-31.992 0)">
    <path id="Path_239416" data-name="Path 239416" d="M225.278,160A1.276,1.276,0,0,0,224,161.27v1.274h2.549V161.27A1.276,1.276,0,0,0,225.278,160Z" transform="translate(-184.366 -153.624)" fill="#e33e71"/>
    <path id="Path_239417" data-name="Path 239417" d="M49.109.126a1.275,1.275,0,0,0-1.35.156,5.245,5.245,0,0,1-6.048,0,1.275,1.275,0,0,0-1.6,0,5.245,5.245,0,0,1-6.048,0,1.274,1.274,0,0,0-2.073.992V11.469c0,3.994,3.2,7.31,8.565,8.87a1.282,1.282,0,0,0,.712,0c5.363-1.56,8.564-4.875,8.564-8.87V1.275A1.274,1.274,0,0,0,49.109.126ZM44.736,12.743a1.274,1.274,0,0,1-1.274,1.274h-5.1a1.274,1.274,0,0,1-1.274-1.274V10.195a1.274,1.274,0,0,1,1.274-1.274V7.646a2.549,2.549,0,1,1,5.1,0V8.921a1.274,1.274,0,0,1,1.274,1.274Z" transform="translate(0 0)" fill="#e33e71"/>
    <path id="Path_239418" data-name="Path 239418" d="M240.641,272a.637.637,0,1,0,.637.637A.637.637,0,0,0,240.641,272Z" transform="translate(-199.728 -261.164)" fill="#e33e71"/>
  </g>
</svg>
