<svg id="Group_3184" data-name="Group 3184" xmlns="http://www.w3.org/2000/svg" width="44.924" height="44.924" viewBox="0 0 44.924 44.924">
  <circle id="Ellipse_19" data-name="Ellipse 19" cx="18.905" cy="18.905" r="18.905" transform="translate(0 36.962) rotate(-77.844)" fill="#3cf"/>
  <g id="Group_3181" data-name="Group 3181" transform="translate(10.746 12.872)">
    <path id="Path_25050" data-name="Path 25050" d="M77.8,282.542a9.575,9.575,0,0,1-2.352.672c.379-.064.938-.749,1.16-1.027a4.323,4.323,0,0,0,.783-1.426c.02-.04.036-.092,0-.123a.134.134,0,0,0-.124.01,12.024,12.024,0,0,1-2.794,1.069.188.188,0,0,1-.193-.051,2.237,2.237,0,0,0-.244-.25,4.937,4.937,0,0,0-1.353-.829,4.708,4.708,0,0,0-2.076-.334,4.959,4.959,0,0,0-1.969.556,5.067,5.067,0,0,0-1.589,1.3,4.884,4.884,0,0,0-.949,1.9,5.144,5.144,0,0,0-.05,2.007c.015.112.005.127-.1.112a14.923,14.923,0,0,1-9.6-4.887c-.112-.128-.173-.128-.265.01A4.869,4.869,0,0,0,56.91,287c.189.178.382.356.59.519A4.9,4.9,0,0,1,55.648,287c-.112-.071-.168-.03-.178.1a2.939,2.939,0,0,0,.03.55,4.923,4.923,0,0,0,3.034,3.924,2.888,2.888,0,0,0,.616.189,5.494,5.494,0,0,1-1.817.056c-.132-.025-.183.041-.132.168a5.113,5.113,0,0,0,3.818,3.2c.173.03.346.03.519.071-.01.016-.021.016-.031.031-.428.654-1.915,1.14-2.607,1.382a9.342,9.342,0,0,1-3.96.507c-.213-.031-.257-.029-.315,0s-.008.087.061.142c.27.178.545.336.825.489a13.09,13.09,0,0,0,2.647,1.059,14.1,14.1,0,0,0,13.687-3.2c2.8-2.787,3.788-6.63,3.788-10.478,0-.151.178-.234.284-.313a9.2,9.2,0,0,0,1.854-1.937.562.562,0,0,0,.115-.371v-.02C77.884,282.48,77.892,282.5,77.8,282.542Z" transform="translate(-54.599 -280.243)" fill="#fff"/>
    <path id="Path_25051" data-name="Path 25051" d="M69.27,321.013Z" transform="translate(-62.354 -301.796)" fill="#fff" fill-rule="evenodd"/>
    <path id="Path_25052" data-name="Path 25052" d="M69.071,321.013c-.031,0-.384,0,0,0Z" transform="translate(-62.155 -301.796)" fill="#fff" fill-rule="evenodd"/>
    <path id="Path_25053" data-name="Path 25053" d="M70.933,321.036c0-.04.413,0,0,0C70.933,321.016,70.984,321.036,70.933,321.036Z" transform="translate(-63.234 -301.799)" fill="#fff" fill-rule="evenodd"/>
    <path id="Path_25054" data-name="Path 25054" d="M88.3,280.557a.083.083,0,0,1-.1,0Z" transform="translate(-72.363 -280.409)" fill="#fff" fill-rule="evenodd"/>
  </g>
</svg>
