<svg xmlns="http://www.w3.org/2000/svg" width="46.216" height="32.826" viewBox="0 0 46.216 32.826">
  <g id="Group_66888" data-name="Group 66888" transform="translate(544.613 -243.087) rotate(90)">
    <g id="Group_66885" data-name="Group 66885" transform="translate(-248.913 796.613) rotate(-90)">
      <path id="Rectangle-path" d="M39,34H55.41v6.7H39Z" transform="translate(241.131 480.11)" fill="#f0c419"/>
      <path id="Shape" d="M22,4.366l3.081-2.994a1.326,1.326,0,0,1,1.279-.335,17.875,17.875,0,0,1,6.33,3.309,1.34,1.34,0,0,1,.476,1.139l-.382,4.756Z" transform="translate(244.735 491.01)" fill="#bdc3c7"/>
      <path id="Shape-2" data-name="Shape" d="M0,26.094V20.066A14.066,14.066,0,0,1,14.066,6c.228,0,.449.007.67.02a14.056,14.056,0,0,1,13.4,14.046V31.452a4.019,4.019,0,0,1-4.019,4.019H8.038Z" transform="translate(252 489.355)" fill="#ff5364"/>
      <path id="Shape-3" data-name="Shape" d="M3.67,21.891a.67.67,0,0,1-.67-.67,12.039,12.039,0,0,1,9.132-11.7.67.67,0,1,1,.324,1.3,10.7,10.7,0,0,0-8.117,10.4.67.67,0,0,1-.67.67Z" transform="translate(251.009 488.2)" fill="#fff"/>
      <path id="Shape-4" data-name="Shape" d="M9.377,41.542v1.835a1.344,1.344,0,0,1-1.34,1.34H3.349A3.349,3.349,0,0,1,0,41.368V35.34A1.344,1.344,0,0,1,1.34,34h.516a1.34,1.34,0,0,1,1.172.7A14.167,14.167,0,0,0,8.66,40.363,1.324,1.324,0,0,1,9.377,41.542Z" transform="translate(252 480.11)" fill="#df4d60"/>
      <path id="Shape-5" data-name="Shape" d="M56.349,35.34v8.038a1.344,1.344,0,0,1-1.34,1.34h-.67A1.344,1.344,0,0,1,53,43.377V34h2.009A1.344,1.344,0,0,1,56.349,35.34Z" transform="translate(241.867 480.11)" fill="#bdc3c7"/>
      <path id="Shape-6" data-name="Shape" d="M47.34,34v2.009a.67.67,0,1,1-1.34,0V34Z" transform="translate(236.811 480.11)" fill="#f29c1f"/>
      <ellipse id="Oval" cy="1.5" ry="1.5" transform="translate(266.613 496.913)" fill="#fff"/>
      <ellipse id="Oval-2" data-name="Oval" cx="2.5" cy="3" rx="2.5" ry="3" transform="translate(272.613 516.913)" fill="#802f34"/>
      <ellipse id="Oval-3" data-name="Oval" cx="6.5" cy="7" rx="6.5" ry="7" transform="translate(259.613 502.913)" fill="#fff"/>
      <path id="Shape-7" data-name="Shape" d="M17.368,31.735a7.368,7.368,0,1,1,7.368-7.368A7.368,7.368,0,0,1,17.368,31.735Zm0-13.4A6.028,6.028,0,1,0,23.4,24.368,6.028,6.028,0,0,0,17.368,18.34Z" transform="translate(248.698 485.723)" fill="#bdc3c7"/>
    </g>
  </g>
</svg>
